<svg id="a2721806-da38-4b6f-a281-e62557364af9" data-name="Layer 1" xmlns="http://www.w3.org/2000/svg" viewBox="0 0 800 800"><defs><style>.a75e2fcb-9456-4b46-92df-9e733c4d4221{fill:#f9a320;}.b1694c99-5f00-4b18-beca-40bcf160558c{fill:#fff;}</style></defs><title>Crickle-alt-logo</title><path class="a75e2fcb-9456-4b46-92df-9e733c4d4221" d="M332.16,481.26c18.51-8.55,40.14-15.62,62.18-20.89s44.47-9,64.82-12.12a374,374,0,0,1,37.55-4.06c6.37-.46,12.8-.55,19.24-.7,3.22-.07,6.45,0,9.68,0s6.46.05,9.69.23l9.68.42c3.23.2,6.45.48,9.66.72l4.82.37,4.81.51,9.57,1.06,9.49,1.33,4.72.69,4.69.81,9.31,1.63,9.18,1.88c-.26,1.21-4.67,2.2-.77,3.63a62.72,62.72,0,0,1,8.94,3.53,18.51,18.51,0,0,1,4.34,2.75,3.41,3.41,0,0,1,1.11,4c-.3,1.2-11.82-2.8-8.17-.66-2.94-.74-6.41-1.41-9.77-2s-6.58-1.2-9.1-1.47c-5-.56-7.08-.44-1.24,1.2,3.74,1.86,19.73,4,23.18,6.82s-4.74,2.7-1.3,5.42c3.88.83,11.51,2.92,15.33,3.95,3.47,2.21-4.79,2.56-1,3.58,11,4.35,26.09,8.46,40.69,14.15-.22.58.49,1.52.29,2s-1.31.56-5-.49A430,430,0,0,0,569.13,476a461.83,461.83,0,0,0-103.06-.22c-68.49,7.44-135.14,30-192.87,65.36-13.4,7.77-5-.53,4-8.33-3,2.54-4,1-7,3.62-.5-.78.5-2.88,3.27-5.91a54.4,54.4,0,0,1,5.65-5,74.86,74.86,0,0,1,8.6-5.94c-3.51,1.86-6.9,3.94-10.33,6-3.74,1.49-.95-1.59-1.58-2.66,3.45-2,6.9-4.07,6.59-4.61s-.92-1.61-1.22-2.15c-3.45,2.07-10.46,6.08-13.85,8.25,3.39-2.17,6.92-4.13,6.59-4.69l-1.27-2.13c1.67-1.16,3.62-2.36,5.71-3.56s4.37-2.32,6.62-3.49,4.52-2.3,6.65-3.44,4.17-2.15,5.9-3.21l-.84-1.65c-1.89.79-4,1.75-6.14,2.83s-4.36,2.38-6.57,3.64-4.45,2.5-6.5,3.78-4,2.47-5.77,3.51c3.2-2.61,2.89-3.15,2.27-4.22,1.28-.84,2.58-1.67,3.91-2.44s2.7-1.47,4.06-2.19l8.21-4.19c2.77-1.33,5.53-2.69,8.22-4.17,1.35-.73,2.67-1.51,4-2.31s2.65-1.58,3.94-2.44c-3.73,1.7-7.38,3.57-11,5.44a28.71,28.71,0,0,1,6.65-4.94c2.87-1.59,6.25-3.18,9.77-4.75s7.27-2.95,10.77-4.4l5.09-2.09C329.22,482.55,330.76,481.9,332.16,481.26Z"/><path class="b1694c99-5f00-4b18-beca-40bcf160558c" d="M127.89,448.54a29.93,29.93,0,0,1-3.94,4,41.32,41.32,0,0,1-8.64,5.75c-1.38.68-2.73,1.31-4.07,1.85s-2.69,1.07-3.84,1.44a111.41,111.41,0,0,1-14.66,4.12A83.39,83.39,0,0,1,77,467.5a59.08,59.08,0,0,1-16.87-2.2l-1.49-.47c-.5-.16-1-.37-1.5-.55l-3-1.11-3-1.33-1.51-.67-1.48-.79a58.25,58.25,0,0,1-11.29-7.58,50.64,50.64,0,0,1-9-10.26,38.85,38.85,0,0,1-3.26-5.88c-.45-1-.94-2-1.33-3.06s-.69-2.08-1-3.1a47.08,47.08,0,0,0,16.9,25.63,51.36,51.36,0,0,0,13.66,7.67,66.68,66.68,0,0,0,14.72,3.63,91.07,91.07,0,0,0,14.53.49,117.86,117.86,0,0,0,14-1.65A138.3,138.3,0,0,0,109.73,463a57.18,57.18,0,0,0,7.74-3,40.66,40.66,0,0,0,8.41-5.38,27.2,27.2,0,0,1-13.06,13.53c-.94.38-1.67.61-2.44.88l-2.31.78c-1.53.53-3.1.93-4.64,1.4-3.1.86-6.23,1.6-9.4,2.18a98.23,98.23,0,0,1-19.51,1.72l0-3.62a58,58,0,0,1-6.87.21c-1.16,0-2.33-.16-3.5-.26l-1.74-.17c-.59-.09-1.18-.2-1.76-.3-1.18-.21-2.34-.42-3.51-.67s-2.34-.64-3.5-1a30.93,30.93,0,0,1-3.46-1.21c-1.14-.46-2.28-.87-3.4-1.43A50.77,50.77,0,0,1,40.24,463a49.54,49.54,0,0,1-6-4.55,51.81,51.81,0,0,1-9.58-11.3,56.08,56.08,0,0,1-3.51-6.47c-.49-1.13-.94-2.29-1.4-3.44l-.66-1.73-.53-1.77a59.84,59.84,0,0,1-2.52-14.26L16,415.87c0-1.18,0-2.34.08-3.52l.06-1.77.17-1.74c.11-1.16.21-2.33.35-3.49a105.19,105.19,0,0,1,2.84-13.77c-.93,1.07-1.34.06-1.77-.44l.09-.25-.09.25c-.39-.43-.82-.44-1.69,1.84.87-2.28,1.3-2.27,1.69-1.84a75.69,75.69,0,0,0-3.8,13.75c-.18,1.19-.33,2.39-.48,3.58l-.21,1.79-.1,1.82c-.06,1.22-.14,2.43-.14,3.65l.11,3.69a57.49,57.49,0,0,0,2.74,14.75,58.67,58.67,0,0,0,2.82,7.13,56.37,56.37,0,0,0,3.73,6.61,58.14,58.14,0,0,0,9.92,11.47c1,.81,2,1.61,3,2.41L36.76,463c.52.36,1.05.71,1.58,1.06,1.06.7,2.13,1.39,3.22,2.07l3.34,1.78c.56.29,1.13.59,1.7.86l1.72.74c1.15.47,2.31,1,3.47,1.41A70.14,70.14,0,0,0,58.85,473,75.5,75.5,0,0,0,73,475,72.92,72.92,0,0,1,50.77,471L48,469.88a27.34,27.34,0,0,1-2.74-1.19l-2.7-1.35-1.34-.69-1.31-.79a52.12,52.12,0,0,1-5.07-3.4,58.66,58.66,0,0,1-4.75-3.88,56.92,56.92,0,0,1-14-19.93A58.29,58.29,0,0,1,11.49,415a68,68,0,0,1,4.19-22.38,72.57,72.57,0,0,1,10.8-19.56l.86-1.12.92-1.08,1.88-2.15c1.27-1.43,2.69-2.74,4.06-4.1s2.77-2.42,4.19-3.6,2.9-2.24,4.4-3.27a87.33,87.33,0,0,1,19-9.86c2.24-.89,6.76-2.31,9-2.89,9.75.19,18.47,0,27.16-.34-1,2.32.75,5.66.56,8.29a3.53,3.53,0,0,1-2.09,3.19,10.37,10.37,0,0,1-3,.84,37.39,37.39,0,0,1-4.89.29l.45,3.62c7.95,1.33,13,5.8,14.29,10a6.8,6.8,0,0,1,.32,3.1,7.48,7.48,0,0,1-1.12,2.87,8.75,8.75,0,0,1-2.45,2.44,16.2,16.2,0,0,1-3.84,2c-6.83,2.28-14.4,3.68-21.4,6.29a41.61,41.61,0,0,0-9.62,5,20.1,20.1,0,0,0-2,1.6l-1,.84c-.3.28-.53.56-.79.84l-.77.83-.69.94c-.22.31-.46.61-.66.93l-.57,1a30.74,30.74,0,0,0-2.85,6,33.07,33.07,0,0,0-1.62,6.1,36,36,0,0,0-.59,5.57c0,1.71-.07,3.34.06,4.93a11.79,11.79,0,0,0,2.52,6.66,17.54,17.54,0,0,0,6.27,5,33.28,33.28,0,0,0,9.64,2.87,81.8,81.8,0,0,0,12,.86c3-.17,7-1.78,10.39-3.42l1.26-.59.63-.28.47-.24c.64-.3,1.19-.56,1.7-.76A3.08,3.08,0,0,1,101,432a5.61,5.61,0,0,1,2.26,1.21,13.36,13.36,0,0,1,2.08,2.2,23.75,23.75,0,0,1-5.42,3.23c-1,.47-2.45,1-3.68,1.46s-2.58.87-3.86,1.3a61.15,61.15,0,0,1-15.67,2.64c-6.31-.09-12.33-1.39-17-4a22.58,22.58,0,0,1-6.07-4.66,20,20,0,0,1-4-6,18,18,0,0,0,3.66,6.22l1.28,1.4,1.47,1.23a10.77,10.77,0,0,0,1.6,1.14,12.94,12.94,0,0,0,1.72,1.05c4.77,2.61,10.93,3.79,17.34,3.61a64.42,64.42,0,0,0,15.8-1.86c1.32-.34,2.64-.69,3.95-1.07l2-.63,1-.31.89-.31a27,27,0,0,0,6.07-3c1.05,1.55,2,3.32,3.66,4.22l.42-.37c.24-.24.57-.57.92-1a13.23,13.23,0,0,0,1.72-2.43c3.45-1.66,6-4,8.74-4a5.43,5.43,0,0,1,4,1.8,8.24,8.24,0,0,1,1.6,2.35,11.79,11.79,0,0,1,1,3.22A25.46,25.46,0,0,1,127.89,448.54Z"/><path class="b1694c99-5f00-4b18-beca-40bcf160558c" d="M209.53,376.5l-2-1.18a139.5,139.5,0,0,0-19.25-8,182.24,182.24,0,0,0-18-5.73,12.37,12.37,0,0,0-3.9-.59,8.31,8.31,0,0,0-3.24.66,8.87,8.87,0,0,0-2.26,1.42,9.58,9.58,0,0,0-1,.95,11,11,0,0,0-1,1.16,12.92,12.92,0,0,0-.85,1.28l-.76,1.41a24.85,24.85,0,0,0-1.22,3,20.75,20.75,0,0,1,1.58-2.87c.32-.42.59-.89.9-1.29a13.22,13.22,0,0,1,1-1.12,11.45,11.45,0,0,1,1-1c.18-.16.34-.28.49-.4s.32-.24.49-.35a10.63,10.63,0,0,1,2.11-1.11,10.41,10.41,0,0,1,3.15-.6,19.7,19.7,0,0,1,4.22.3,52.65,52.65,0,0,1,10.9,3.37c2,.81,4.22,1.75,6.33,2.68s4.23,1.91,6.31,2.91c4.16,2,8.22,4.19,12.14,6.55-3,1.37-6.25,2.18-9.52,1.2q-5.73-2.35-11.42-4.53l-5.56-2.08q-2.53-.93-4.72-1.61c.21-.89.62-2.64.83-3.52l-4.11-.3c-1.2-.06-2.24-.08-3.12-.1-.4,0-.83,0-1.14,0s-.64.05-.83,0c-.42,0-.84.06-1.29.11a7,7,0,0,0-1.36.39,5.55,5.55,0,0,0-1.58,1,10.61,10.61,0,0,0-1.63,1.91,12.63,12.63,0,0,0-1.31,2.54c-1.47,3.8-1.32,9.52,1.14,15.44.38-.73,1.18-.45,1.78-.4l0,.13,0-.13c.54.05.89-.11.76-1.19.13,1.08-.22,1.24-.76,1.19-1.22-5.94-1.19-11-.12-14.26a11.93,11.93,0,0,1,.42-1.15c.13-.38.36-.66.5-1a9.14,9.14,0,0,1,1.14-1.64,3.49,3.49,0,0,1,1-.84,2.91,2.91,0,0,1,.84-.26,13.13,13.13,0,0,1,2.25.24,25.21,25.21,0,0,1,2.53.54c.47.1,1.05.29,1.59.44s1.15.35,1.8.58c-.65-.2-1.2-.33-1.8-.5s-1.12-.27-1.59-.35a20.85,20.85,0,0,0-2.51-.35,5.72,5.72,0,0,0-1.94.08,1.84,1.84,0,0,0-.52.27l-.12.09,0,0-.09.08a4.69,4.69,0,0,0-.41.45,5.22,5.22,0,0,0-.41.57c-.14.2-.26.51-.42.75a6.21,6.21,0,0,0-.39.82,7.05,7.05,0,0,0-.34.92c-.85,2.53-1.11,6.62-.45,11.65.34,2.51.86,5.23,1.53,8.09s1.49,5.87,2.39,9.15c1.77,6.41,3.64,12.78,5.66,19.07.43,1.35,1.32,4,1.78,5.36a32.49,32.49,0,0,0,2.64,17c-2.37.25-5.09,2.58-7.56,3.46s-4.78.23-6.13-5.66l-3.39,1.33c.06,6.45-2.11,12.06-5.47,14.91a7.14,7.14,0,0,1-5.74,1.76c-2.1-.34-4.34-1.73-6.46-4.44-4.54-6.2-7.52-14.41-10-23-1.22-4.29-2.33-8.68-3.49-13-.58-2.17-1.18-4.32-1.82-6.45-.32-1.06-.65-2.12-1-3.16s-.72-2.2-1.1-3.28a93.42,93.42,0,0,1-4.44-21.88c-.15-2-.15-4.2-.1-6.35.07-1.12.15-2.23.25-3.34s.29-2.29.46-3.42a48.16,48.16,0,0,1,4.52-14l1.92-3.37c.65-1.12,1.43-2.19,2.15-3.27a49,49,0,0,1,5.11-6.32c1-1,2-2,3-2.93a44.11,44.11,0,0,1,11.19-7.28c1.2-.48,2.4-1,3.62-1.39s2.46-.78,3.72-1,2.52-.56,3.8-.71,2.43-.3,3.59-.34a48.85,48.85,0,0,1,12.61,1,58.92,58.92,0,0,1,9.93,3,65.53,65.53,0,0,1,7.89,3.75c5.58,2.6,16.56,3,18.7,6.51,1.73,1.87,1.26,3.76.32,5.73l-28.71-9.3a65.8,65.8,0,0,0-14.45-3.5,39.09,39.09,0,0,0-8.74-.06,37.43,37.43,0,0,0-9.39,2.28,36.62,36.62,0,0,0-7.94,4.41c-.61.45-1.23.92-1.83,1.42s-1.14.95-1.68,1.45a43.56,43.56,0,0,0-3.1,3.13c1-1.05,2.08-2.05,3.19-3,.56-.48,1.13-.95,1.72-1.4s1.23-.93,1.85-1.37a36.29,36.29,0,0,1,17.17-6.44,40.86,40.86,0,0,1,8.63,0,74.23,74.23,0,0,1,14.57,3.11c2.54.88,5,1.82,7.24,2.71l6.9,2.69q6.9,2.7,13.77,5.49a11,11,0,0,0-1.69,5.33l4.37,1.3c4.54,6.1,1.26,11.78-2.95,15.28C211.89,375,210.76,375.77,209.53,376.5Z"/><path class="b1694c99-5f00-4b18-beca-40bcf160558c" d="M380.24,427.47l-2.61.55c-8,2-16,5.17-25,7.7s-19,4.41-30,3.1a99.74,99.74,0,0,1-11.74-2.53,59.82,59.82,0,0,1-11.87-4.7,47,47,0,0,1-18.76-17.4A44.09,44.09,0,0,0,289.51,426a49.94,49.94,0,0,0,12.3,8.23,63.16,63.16,0,0,0,27.9,5.52,99.23,99.23,0,0,0,13.4-1.13c4.35-.66,8.61-1.53,12.66-2.49,8.15-1.9,15.75-4.08,22.94-5.55a17.28,17.28,0,0,1-8.34,7.87c-5,1.66-10.27,3.33-15.8,4.77a119.24,119.24,0,0,1-17.51,3.26c-.12-.91-.37-2.69-.49-3.58a56.46,56.46,0,0,1-25.9-.26,53.54,53.54,0,0,1-6.57-2.07c-1.11-.42-2.2-.88-3.26-1.39s-2.12-1-3.14-1.59a54.68,54.68,0,0,1-11.27-8.27,52.23,52.23,0,0,1-8.95-11.18,48.7,48.7,0,0,1-5.64-14,51.43,51.43,0,0,1-1.12-15.13,67.28,67.28,0,0,1,2.7-14.45c-1,1.08-1.36.05-1.79-.45l.11-.26-.11.26c-.35-.44-.84-.49-1.74,1.91.9-2.4,1.39-2.35,1.74-1.91A56.39,56.39,0,0,0,268,388.78a47.75,47.75,0,0,0,6.92,30.51,54.12,54.12,0,0,0,9.49,11.43A58.42,58.42,0,0,0,296,439a61.47,61.47,0,0,0,13.19,5.27,78.56,78.56,0,0,0,26.45,2.35,82.9,82.9,0,0,1-20.67-.58,68.47,68.47,0,0,1-10.65-2.58,60.13,60.13,0,0,1-10.52-4.67,57.2,57.2,0,0,1-17.62-15.25,49.54,49.54,0,0,1-6.28-10.86,47.5,47.5,0,0,1-3.37-12.64,52.35,52.35,0,0,1,3-24.36,60,60,0,0,1,5-10.42,64.24,64.24,0,0,1,6.71-9.06,79.55,79.55,0,0,1,15.75-13.49,118.55,118.55,0,0,1,16.49-9c1.89-.87,5.72-2.49,7.66-3.23A156.74,156.74,0,0,0,345.83,327c-.51,2.43,1.66,5.47,1.94,8.09a3.53,3.53,0,0,1-1.41,3.46c-1.25,1-3.45,1.7-7.17,2.27.25.87.74,2.62,1,3.5,7.66.22,13.22,3.72,15.12,7.64a7,7,0,0,1,.85,3,7.51,7.51,0,0,1-.56,3,11.7,11.7,0,0,1-5.29,5.36c-6.24,3.35-13.67,5.79-21.26,9.15A69.52,69.52,0,0,0,318.62,378a22.31,22.31,0,0,0-6.82,6.62,24,24,0,0,0-1.36,2.34,22,22,0,0,0-.95,2.3,16.51,16.51,0,0,0-.9,4,13.64,13.64,0,0,0-.09,1.43c0,.42,0,.75,0,1.07a10.68,10.68,0,0,0,.25,2.7,10.08,10.08,0,0,0,3.64,5.34,18.37,18.37,0,0,0,7.27,3.6c6,1.69,13.91,1.51,22.3.87,3-.42,7-2.31,10.74-4.09s7.31-3.36,9.49-2.83c2.85.16,3.75,1.88,4.27,4-5.44,2.25-10.7,4.45-15.87,6.25a79.82,79.82,0,0,1-15.24,3.9,43.69,43.69,0,0,1-17.23-1.4,29.54,29.54,0,0,1-3.66-1.41,24.32,24.32,0,0,1-3.13-1.82,21.73,21.73,0,0,1-5.05-4.77,19.09,19.09,0,0,0,4.8,5.05,22.39,22.39,0,0,0,3.11,1.92,27.89,27.89,0,0,0,3.68,1.45,40.26,40.26,0,0,0,17.48,1c10-.93,20.55-4.58,31.48-8.41.37,1.87.79,3.81,2.16,5.16l4.93-2.19c8.45,1.26,9.21,7.9,7.88,13.44C381.35,424.7,380.85,426.06,380.24,427.47Z"/><path class="b1694c99-5f00-4b18-beca-40bcf160558c" d="M400.26,441.94c.09-.78.2-1.55.28-2.32,1-14.16-1.56-27.88-1.62-43.46.49-11-1.91-23.16-3.22-33.91,1.44,25.69,5.34,52.4,2.06,77.65-2.44-2.21-4.5-5-4.92-8.41-.17-8.39-.57-16.64-1.16-24.8l3.59-.44c-5.52-22.72-.91-45.11-8.23-67.61-.39.88-1.18.49-1.79.39,0-.06,0-.11,0-.17s0,.11,0,.17c-.53-.09-.91.05-.74,1.48-.17-1.43.21-1.57.74-1.48,3.65,22.56,5.36,43.87,6.36,66.73-2.59-35.37-8.48-69.05-12.87-105.09-.19-1.53-.56-4.6-.75-6.14a44.92,44.92,0,0,0,1.37-18.88c4.71,1,13-6.26,12.69,6.25l3.62-.44c3-12.84,15.12-19,20.23-7.14,5.3,13.39,3.93,32.26,7.8,48.94,2.4,12.19,4.8,24.37,4.49,36.88-.66,17.23,2.49,35.56.94,52.9-.16,6.25,3.86,16.68,1.53,20.09-1,2.36-3,2.68-5.14,2.61-.91-10.14-2-20.23-2.85-30.23-.48-12.34-.84-24.7-.53-37.13-1,12.24-.5,24.62.53,37.13.38,10,.84,20.07,1.08,30.12a10.88,10.88,0,0,0-5.56.57s.37,3.07.56,4.61c-3.77,6.7-10.29,5.93-15.18,3.41C402.55,443.55,401.41,442.8,400.26,441.94Z"/><path class="b1694c99-5f00-4b18-beca-40bcf160558c" d="M496.2,421c-.4-.59-.87-1.11-1.31-1.66-4.27-4.85-9.72-8.54-15.86-11.76s-13-6-20.38-9.51a79.91,79.91,0,0,0-8.13-3.68l-2.16-.84-1.09-.41-1.62-.58-6.51-2.32c-4.38-1.5-8.59-3.16-12.82-4.75l-5.79-2.67-1.43-.66c-.23-.11-.48-.21-.7-.33l-.59-.37L415.5,380l2.54,1.81c.95.58,2.06,1.11,3.09,1.67l3.17,1.66c.54.27,1.05.56,1.62.82l1.75.76c2.36,1,4.69,2,7.13,3l7.42,2.88,6.57,2.44,4.9,1.87c3.24,1.25,6.45,2.5,9.52,3.83,12.35,5.24,23.24,11.74,30,20.82a18.71,18.71,0,0,1-4.46.18,8.41,8.41,0,0,1-4.07-1.25A90.67,90.67,0,0,0,465,409.28l1.27-3.39A150.78,150.78,0,0,1,450,400.8c-1.35-.5-2.72-1-4.1-1.57l-.52-.21-.83-.31-1.79-.67c-1.19-.46-2.39-.91-3.55-1.39l-6.94-2.83c-1.15-.46-2.26-.95-3.35-1.46l-3.27-1.49-3.24-1.48-.81-.37-.73-.41-1.45-.81-5.77-3.22c-1.61-1.15-3-2.34-4.59-3.48l-2.3-1.72-2.08-1.7c-2.78-2.27-5.61-4.53-8.94-7.37l-.63-.54-.32-.27-.1-.19-.45-.74c-.31-.5-.64-1-1-1.49a32,32,0,0,0-3.24-3.71c1.32-1,2.6-2,3.95-3.14-2.39,1-2.84.39-3.55.15l.32-.21-.32.21c-.6-.22-1.54-.08-4.36,1.74,2.82-1.82,3.76-2,4.36-1.74l-4.64,3.11,1.89,2.13.47.54.23.26.15.19.61.78,1.2,1.54a8.88,8.88,0,0,0,1.61,1.78c3.32,3,6.14,5.44,9,7.85l2.12,1.81c.72.61,1.59,1.22,2.37,1.83l4.79,3.67c2,1.12,4.13,2.19,6.17,3.3,1.05.55,2.06,1.11,3.13,1.65l3.48,1.47c2.34,1,4.62,2,7,2.95l7.27,2.81c2.42,1,4.91,1.85,7.4,2.76l4.06,1.59c5.39,2.11,10.51,4.23,15.47,6.52-5-2.11-10.12-4-15.59-6l-4.11-1.45c-2.52-.87-5.12-1.75-7.62-2.7L429.27,396c-2.49-.94-4.88-2-7.32-2.95l-3.65-1.48L415,389.91l-3.26-1.68-1.63-.84-.82-.42-.41-.21-.31-.24-5-3.79-1.25-.94c-.42-.32-.83-.64-1.18-1L399,379c-2.88-2.5-5.75-5-9.14-8.1l-.65-.59c-.18-.17-.25-.27-.38-.41l-.69-.78-1.4-1.55-.71-.78-1-1L383,363.57l20.21-13.27,2.52-1.67,2.31-1.64,4.61-3.3c.75-.55,1.58-1.09,2.27-1.66l2.05-1.71,4.1-3.44c1.43-1.17,2.58-2.27,3.84-3.39l3.72-3.36,4.46-4.12,4.18-3.84,4.35-3.91c1.35-1.16,3.94-3.48,5.37-4.64,7.26-2.55,13.57-6.34,20.07-10.49.41,2.41,3.47,4.54,4.66,6.88s.67,4.72-5.4,8L468.5,321c.84-.27,1.67-.49,2.49-.67a23.76,23.76,0,0,1,2.43-.31,16.68,16.68,0,0,1,4.45.18,12.34,12.34,0,0,1,6.53,3.19,7.58,7.58,0,0,1,1.81,2.53,8.81,8.81,0,0,1,.63,3,8.55,8.55,0,0,1-.55,3.17,11.82,11.82,0,0,1-.77,1.62,15,15,0,0,1-1.13,1.73c-4.09,5-9.95,9.73-16.63,15.43-3.3,2.79-6.85,5.82-10.35,9l-.34.31-.23.22-.21.22a.36.36,0,0,0-.06.13.42.42,0,0,0,.16.46,1.14,1.14,0,0,0,.87.37c.26,0,.42,0,.21,0a3.18,3.18,0,0,0-1.22.61,1,1,0,0,0-.39,1.47,3.08,3.08,0,0,0,.59.71l.1.09.3.12.4.17,1.63.65,3.34,1.34c4.44,1.77,9.06,3.68,13.59,5.81a97.21,97.21,0,0,1,13.3,7.52,28,28,0,0,0,2.64,1.4c1,.46,2,1,3,1.45l3.25,1.44,3.24,1.59c1.06.55,2.09,1,3,1.62s1.81,1.16,2.58,1.73a8,8,0,0,1,3,3.4c1.48,2.66.39,4.27-1.2,5.8-9.47-7.34-20.18-12.56-30.52-17-6.27-3-12.52-5.63-18.59-8.34l-4.51-2-.56-.25a.61.61,0,0,1-.18-.1l-.12-.07-.46-.3-.86-.58a18,18,0,0,1-2.73-2.29A10.14,10.14,0,0,0,453,370c.27.21.57.43.87.64l.47.31.24.16.52.25q2.21,1,4.5,2c6.08,2.69,12.44,5.18,18.92,8,10.16,4.87,20.41,10.61,29.2,18.22a9.75,9.75,0,0,0-3.35,4.48l1.54,1.12c.43.31.91.64,1.35,1l1.17.95c1.21,3.93.32,6.73-1.47,8.79a16.18,16.18,0,0,1-7,4.26C498.8,420.41,497.52,420.71,496.2,421Z"/><path class="b1694c99-5f00-4b18-beca-40bcf160558c" d="M590.62,434.78l-2.79,0c-8.49.38-16.64.9-25.25.78l-1.74,0c-.58,0-1.46-.06-2.19-.11-1.54-.1-3.07-.25-4.58-.5a34.37,34.37,0,0,1-8.82-2.58A27.63,27.63,0,0,1,532,419.68a45.11,45.11,0,0,1-2.44-6.26c-.34-1.08-.64-2.17-.91-3.28-.15-.55-.28-1.1-.39-1.66L528,407c-.68-3.66-1.14-7.14-1.51-10.37-.8-6.55-1.44-12.79-1.85-18.69,0,7,.3,14.07,1,21.61.2,1.92.46,3.92.82,6,.2,1.09.37,2,.67,3.28s.69,2.63,1.11,3.93a35.39,35.39,0,0,0,8.15,13.94,31.21,31.21,0,0,0,6.45,5,34.43,34.43,0,0,0,7.59,3.15,47.84,47.84,0,0,0,8.22,1.51l3.63.31,3,.21c7.68.51,15.37.68,23.09.67a17.19,17.19,0,0,1-10.3,5.67q-3.94.19-7.86.22c-1.3,0-2.61,0-3.9,0l-4-.11-2.4-.11c-1.07-.05-2.13-.13-3.19-.23a52.09,52.09,0,0,1-6.25-1,40.28,40.28,0,0,1-11.54-4.41l1.81-3.14a26.13,26.13,0,0,1-3.52-1.93,28.8,28.8,0,0,1-3.23-2.37,33,33,0,0,1-5.4-5.91,41.87,41.87,0,0,1-6.34-14.67,67.89,67.89,0,0,1-1.5-11.08l-.22-4.89c-.06-1.63-.06-3.18-.09-4.76l-.12-9.34c0-3.08-.13-6.16-.28-9.23a116.46,116.46,0,0,0-2.32-18.53c-.46.91-1.22.41-1.81.24v0c-.52-.15-.92,0-.87,1.53-.05-1.56.35-1.68.87-1.53.42,6.17.79,12.26,1.12,18.33s.66,12.23,1,18.32l.28,4.68.38,4.84a96.69,96.69,0,0,0,1.46,10.95c.19.89.52,2.41.9,3.72s.8,2.66,1.27,4a44.19,44.19,0,0,0,3.54,7.57,37.84,37.84,0,0,0,5,6.74,36.72,36.72,0,0,0,3,2.94c1.12.87,2.21,1.8,3.42,2.56a37.08,37.08,0,0,1-9.61-9A44.63,44.63,0,0,1,521.49,416c-.38-1-.71-2.09-1-3.15-.15-.53-.31-1.06-.45-1.6l-.36-1.44c-.38-1.63-.68-3.17-.94-4.68-.52-3-.85-5.7-1.1-8.2l-.4-3.84-.33-3.7c-.23-2.48-.4-4.88-.59-7.31-.36-4.83-.68-9.6-1-14.37-1.15-19.06-2-38-2.06-57.71v-6.72a57.28,57.28,0,0,0,4-20.3c2.24.94,5.71-.23,8.32.08s4.35,2,3.29,8.67l3.64.07c2.4-6.59,6.94-10.91,11.19-11.89a7.11,7.11,0,0,1,5.93,1c1.74,1.23,3.1,3.27,3.94,6.48,3.24,14.31-.29,33.91,2,51.73,1.24,13,2.62,25.87,1.64,38.64a117.73,117.73,0,0,0-.39,13.09c0,1.06.07,2.12.11,3.18s.11,2,.19,2.88.15,1.74.25,2.49c0,.37.1.76.15,1.08a2.69,2.69,0,0,1,0,.31,4.84,4.84,0,0,0,.52,2.68,7.73,7.73,0,0,0,2.61,2.7,15.59,15.59,0,0,0,4.52,0c1.79-.18,3.66-.5,5.43-.81,3.55-.61,6.7-1.14,8.37-.07,2.29.89,2.79,2.76,2.89,4.95A122.31,122.31,0,0,1,567,411.89c-1.24.06-2.48.09-3.71.11h-1.77l-.82,0-.57,0a13.93,13.93,0,0,1-4.23-.88,8.37,8.37,0,0,1-3.67-3.51,11.5,11.5,0,0,1-1.29-4.68,3.63,3.63,0,0,1,0-.57c0-.28-.08-.58-.1-.9-.06-.62-.11-1.27-.15-1.94-.07-1.34-.11-2.73-.11-4.24l.07-4.59c0-1.54.13-3.15.21-4.72-.17,1.54-.34,3.13-.44,4.65s-.17,3.05-.22,4.57,0,2.91,0,4.27c0,.66.07,1.33.13,1.95,0,.33.06.64.1.94s0,.41.05.63a11.11,11.11,0,0,0,1.46,4.79,7.48,7.48,0,0,0,1.69,2,7.79,7.79,0,0,0,2.27,1.36,14.76,14.76,0,0,0,4.19,1.24l.58.09.81.08,1.76.11c1.23.05,2.47.09,3.71.11a129.31,129.31,0,0,0,15-.65c0,1.89,0,3.87,1,5.51l1.78-.37c1-.22,2.17-.48,3-.68,3.68,1.45,5.67,3.69,6.4,6.34a12.26,12.26,0,0,1-1,8.27C592.33,432.24,591.55,433.49,590.62,434.78Z"/><path class="b1694c99-5f00-4b18-beca-40bcf160558c" d="M706.64,440.14c-.84.3-1.68.58-2.49.81s-1.63.51-2.42.71a163,163,0,0,1-21.23,4.7c-3.52.56-7.07,1-10.69,1.31a109.34,109.34,0,0,1-11.12.45,77.86,77.86,0,0,1-11.89-1,53.53,53.53,0,0,1-6.43-1.47,36.94,36.94,0,0,1-3.51-1.21l-1.84-.75c-.6-.27-1.19-.58-1.78-.88a31.86,31.86,0,0,1-6.58-4.48c-1-.92-1.87-1.9-2.77-2.89l-1.27-1.53-.87-1.14A69.55,69.55,0,0,1,615,422.36c-1.34-2.72-2.47-5.46-3.48-8.11l-.75-2-.78-2.21c-.51-1.5-1-3-1.37-4.53a97.62,97.62,0,0,1-2.8-17.82c-.22-2.88-.35-5.64-.44-8.43s-.12-5.64,0-8.51a77.68,77.68,0,0,1,2.25-17.4,83.76,83.76,0,0,0-3,20c-.12,3.24-.12,6.41-.06,9.54s.22,6.41.54,9.76a82.59,82.59,0,0,0,1.63,10.3c.38,1.75.88,3.52,1.42,5.29.3.88.57,1.77.91,2.65l.5,1.33.46,1.15a83.55,83.55,0,0,0,4.46,9.5,77,77,0,0,0,5.92,9l1.53,2,.41.53.57.68a16.1,16.1,0,0,0,1.16,1.32c.81.85,1.59,1.74,2.48,2.51a30.92,30.92,0,0,0,2.78,2.17,36.23,36.23,0,0,0,6.18,3.44l1.65.68.83.33.77.26c1,.32,2,.68,3,.93a66.91,66.91,0,0,0,11.14,2.06,100.61,100.61,0,0,0,10.41.54,149.27,149.27,0,0,0,19.78-1.28c3.24-.4,6.46-.9,9.71-1.52s6.49-1.31,9.86-2.24a37.93,37.93,0,0,1-17.43,9.36A135.89,135.89,0,0,1,658,455.87a81.58,81.58,0,0,1-15.2-1.74l-2.08-.49c-.68-.17-1.37-.34-2.11-.58l-2.21-.69q-.55-.17-1.2-.42l-1.25-.49a43.7,43.7,0,0,1-9.38-5l2.09-3c-1-.65-1.89-1.33-2.81-2s-1.7-1.55-2.53-2.36a15.73,15.73,0,0,1-1.22-1.23L619,436.66c-.51-.56-1-1.11-1.51-1.7a67,67,0,0,1-10.73-16.69c-.33-.72-.62-1.41-.93-2.11l-.87-2.09c-.65-1.65-1.25-3.32-1.75-5a79.19,79.19,0,0,1-3.15-18.91,164.84,164.84,0,0,1,.07-17.08,100.62,100.62,0,0,1,2.55-18.25,73.49,73.49,0,0,1,3-9.54c.63-1.6,1.33-3.15,2.13-4.77s1.73-3.22,2.68-4.78a54.09,54.09,0,0,1,15.53-16.06,45.67,45.67,0,0,1,11.13-5.42,42,42,0,0,1,13.23-2.05c-2.57-.59-1-1.27-.42-1.84l.54,0-.54,0c.27-.24.34-.47-.27-.66a13.37,13.37,0,0,0-4.32-.25,13.37,13.37,0,0,1,4.32.25c.61.19.54.42.27.66a43,43,0,0,0-13.73,1.66,46.39,46.39,0,0,0-11.73,5.35,53.73,53.73,0,0,0-16.39,16.51,64.16,64.16,0,0,0-8.07,19.78,99.87,99.87,0,0,0-2.31,18.58c-.11,2.93-.12,5.77-.08,8.54s.11,5.54.29,8.48a92.86,92.86,0,0,0,2.94,18.85c.46,1.67,1,3.35,1.59,5l.47,1.27.44,1.14.84,2.08a83.85,83.85,0,0,0,4.25,8.94,82,82,0,0,0,5.57,8.62l1.42,1.9,1.45,1.86a34,34,0,0,0,2.44,2.77c.86.88,1.69,1.81,2.62,2.62-1.43-1.27-2.73-2.69-4-4.09l-.93-1.09-.66-.81-1.11-1.4c-1.5-1.91-3-4-4.55-6.28a74.59,74.59,0,0,1-4.14-7.08c-1.22-2.38-2.25-4.67-3.17-6.85l-.67-1.63-.77-2c-.49-1.33-1-2.66-1.34-4a79.68,79.68,0,0,1-1.93-7.79,109.19,109.19,0,0,1-1.75-14.5c-.14-2.29-.23-4.46-.29-6.66s-.08-4.47,0-6.79a108.1,108.1,0,0,1,1.13-14.61,73.77,73.77,0,0,1,4.16-15.74c.5-1.34,1.11-2.65,1.71-4s1.37-2.76,2.16-4.07a55.12,55.12,0,0,1,5.22-7.55,56.39,56.39,0,0,1,6.51-6.71,53.61,53.61,0,0,1,8-5.67A45.25,45.25,0,0,1,645.82,309a42.81,42.81,0,0,1,11,.87,48.85,48.85,0,0,1,10,3.26,54.56,54.56,0,0,1,15.66,10.95,57.92,57.92,0,0,1,6,6.93,69,69,0,0,1,4.64,7.21c.66,1.21,1.32,2.42,1.9,3.62l.5,1,.61,1.32c.4.89.8,1.77,1.16,2.67,1.51,3.56,2.74,7.22,3.9,10.86.59,1.82,1.12,3.65,1.65,5.48l.76,2.73c.25.92.38,1.81.57,2.71a32.23,32.23,0,0,1,.31,10,24,24,0,0,1-2.89,8.79,21.22,21.22,0,0,1-2.79,3.82c-.47.49-.92.94-1.39,1.37s-1.1.87-1.65,1.3L694,395.24l-3.45,1.83-.87.46a5.77,5.77,0,0,1-1,.34l-2.15.63c-2.75,1-6,1.3-9.15,1.84-2.83.24-5.55.52-8.21.83l-2,.25-1,.12-.57,0-2.2.13c-1.48.09-3,.21-4.5.34l-4.64.44c-6.28.59-12.93,1.39-20.89,1.06,1-1.1.82-2.54.49-4a10.47,10.47,0,0,1-.5-4.31c.28-1.32,1.31-2.32,3.7-3s6.12-1.12,12-1.64l-.6-3.59c-5.8-.17-10.77-1.5-14-3.58a11.94,11.94,0,0,1-1.14-.77c-.34-.29-.65-.58-.94-.86a8.68,8.68,0,0,1-1.44-1.74,7.51,7.51,0,0,1-1.06-3.45,4.73,4.73,0,0,1,.39-3.12,7.51,7.51,0,0,1,.93-1.27,12.6,12.6,0,0,1,.87-1.25,8.93,8.93,0,0,1,1-1.08,8.76,8.76,0,0,1,1.31-1,11.37,11.37,0,0,1,1.78-.9c.31-.13.75-.31,1.14-.45s.81-.26,1.29-.41c3.84-1.08,8.7-2.39,14.45-3.92l2.19-.58,1.13-.29.58-.15H657l.23-.11a1.41,1.41,0,0,1,.53-.08,1.56,1.56,0,0,0,.43,0,.33.33,0,0,0,.18-.3,2.45,2.45,0,0,0-.05-.79,1.69,1.69,0,0,0-.15-.43l-.42-.82c-.34-.63-.67-1.25-1-1.81a20.2,20.2,0,0,0-2.11-2.87,12.92,12.92,0,0,0-2.22-1.94,11.37,11.37,0,0,0-2.71-1.57,4,4,0,0,0-1.68-.32c-.34,0-.33.13-.49.22s-.5.23-1,.56a15,15,0,0,0-4.08,3.88c-.33.45-.64.9-.92,1.36s-.67,1.18-1,1.83a35,35,0,0,0-1.85,4.59c-1.65,4.76-2.29,11.26-2.29,18.51-.05,7,.57,13.09,2.09,17.59.13.46.51,1.43.79,2.16s.59,1.49.89,2.18c.58,1.38,1.15,2.58,1.76,3.75a41.47,41.47,0,0,0,2.16,3.57c.43.63.89,1.29,1.38,2l.37.52a3.24,3.24,0,0,1,.29.4l.13.29a2.57,2.57,0,0,0,.34.54c.1.21.28.32.41.53a2.68,2.68,0,0,0,.5.45,2.09,2.09,0,0,1,.28.24,4.55,4.55,0,0,0,.55.28,30.89,30.89,0,0,0,7.43,2.18c4.31.63,10.91-.34,16.83-1.69s11.14-2.89,13.81-2.36c3.64.14,4.47,1.83,4.74,4.06a107.33,107.33,0,0,1-24.57,5.42,70.38,70.38,0,0,1-12.09.26,41.66,41.66,0,0,1-5.49-.72,22.07,22.07,0,0,1-4.3-1.34,9.72,9.72,0,0,1-3.43-2.75l-1.79-2.44c-.74-1-1.4-2-2-2.95a42.74,42.74,0,0,1-3.12-5.91c-.46-1.05-.9-2.14-1.32-3.3l-.64-1.75c-.12-.32-.19-.56-.27-.8l-.23-.74A51.82,51.82,0,0,1,630,388.3a121.35,121.35,0,0,1,.67-15.12,105.79,105.79,0,0,0-1.06,14.93,49.53,49.53,0,0,0,1.68,13.48c.15.51.31,1,.48,1.52l.65,1.77c.43,1.17.89,2.27,1.36,3.34a40.52,40.52,0,0,0,3.23,6c.63,1,1.33,1.95,2.08,2.95.37.5.77,1,1.17,1.51l.75,1a9.79,9.79,0,0,0,3.61,2.67,21.47,21.47,0,0,0,4.25,1.51,43.77,43.77,0,0,0,5.46.91,71.31,71.31,0,0,0,12.09.18,110.61,110.61,0,0,0,24.78-4.4c.08,1.94.13,4,1.76,5.31,0,0,1.29-.48,2.87-1.12s3.43-1.49,4.6-2.13a44.24,44.24,0,0,1,7-.1c1.86.15,3.39.48,4.4,1.43s1.46,2.42,1.17,4.46a12.32,12.32,0,0,1-.73,3,20.88,20.88,0,0,1-1.38,3.06A60.51,60.51,0,0,1,706.64,440.14Z"/><path class="b1694c99-5f00-4b18-beca-40bcf160558c" d="M233.86,467.28l.17-1.69a60.42,60.42,0,0,0-.05-7.38c-.11-2.4-.33-4.77-.59-7.17s-.45-4.79-.63-7.26-.22-5-.14-7.56c.85-7.31-1.05-15.22-1.79-22.26,0,8.43.85,17,1.25,25.67a149.46,149.46,0,0,1-.79,26.53c-2.5-1.27-4.57-3-5.07-5.38-.18-3-.28-5.82-.5-8.68s-.35-5.61-.55-8.36l3.57-.54c-2.5-7.47-2.3-15-2.26-22.44s0-14.8-3-22.16c-.43.59-1.2.34-1.8.28v0c-.52-.05-.92,0-.83,1-.09-.95.31-1,.83-1,2.28,14.84,2.93,28.83,3.41,44.23-.9-11.89-2.24-23.26-3.64-34.7s-2.82-22.89-3.7-34.76l-.29-4a21.38,21.38,0,0,0,2.84-12.38c4.61.72,13.44-3.84,12.13,4.29l3.63-.24c4-8.31,16.61-11.91,20.72-4.3,4.17,8.57,1.41,20.61,4.17,31.24,1.58,7.75,3.25,15.44,2.29,23.39-1.55,11,.82,22.42-1,33.36-.15,2,.79,4.45,1.43,6.74s1.1,4.28,0,5.49c-1,1.59-2.87,2.05-5,2.33-1-6.19-2-12.47-2.59-18.78a177.67,177.67,0,0,1,.86-23.68,81.83,81.83,0,0,0-.86,23.68c.14,6.37.49,12.68.84,19a17.12,17.12,0,0,0-5.48,1.15l.69,2.87c-3.51,4.92-9.87,5.72-14.8,4.68C236.19,468.09,235,467.73,233.86,467.28Z"/><path class="b1694c99-5f00-4b18-beca-40bcf160558c" d="M253.37,290.12a15.6,15.6,0,0,1-2.32,4.7,13.89,13.89,0,0,1-2,2.26,9.8,9.8,0,0,1-1.5,1.17l-.62.26-1.26.56-2.71,1.26a31.79,31.79,0,0,1-7.16,2.49,19.92,19.92,0,0,1-4.84.36c-.44,0-.83-.05-1.3-.1s-1.13-.16-1.68-.28a15.57,15.57,0,0,1-3-1,16,16,0,0,1-4.83-3.21,15.81,15.81,0,0,1-3.41-4.85,19.25,19.25,0,0,1-1.27-4.75,15.8,15.8,0,0,1,.3-5.77,14.54,14.54,0,0,1,1-2.82,15.56,15.56,0,0,1,1.45-2.41,14.89,14.89,0,0,1,3.85-3.63,16.5,16.5,0,0,1,7.4-2.56,17.52,17.52,0,0,1,3.15,0c.51,0,1,.12,1.52.2s1.06.22,1.44.33l-.36-.14-.44-.14c-.29-.09-.59-.18-.88-.25a15,15,0,0,0-1.77-.37,17.4,17.4,0,0,0-3.78-.13,16.05,16.05,0,0,0-4.39,1,15.25,15.25,0,0,0-5,3.07,15.53,15.53,0,0,0-2.22,2.59,14.76,14.76,0,0,0-1.63,3.14,15.42,15.42,0,0,0-.88,7.25,16.74,16.74,0,0,0,1.89,5.94,18.26,18.26,0,0,0,3.12,4.23,18.45,18.45,0,0,0,4.06,3.11,17.33,17.33,0,0,0,5.37,2c1.14.22,1.78.29,2.6.38a23,23,0,0,0,2.33.08,26.23,26.23,0,0,0,4.32-.43,50.26,50.26,0,0,0,6.82-1.84l2.77-.92,1.29-.42c.22-.07.41-.12.65-.21A11,11,0,0,0,251,299c-.27.69-.5,1.29-.66,1.79a3.34,3.34,0,0,0-.1.36l0,.22,0,.45a6.2,6.2,0,0,1-.12,1.73,4.49,4.49,0,0,1-1.85,2.87,38.17,38.17,0,0,1-11.07,4,28.83,28.83,0,0,1-7.83.3l-.6-.07-.69-.09c-.45-.07-.91-.14-1.36-.23a24,24,0,0,1-2.53-.65,24.9,24.9,0,0,1-4.44-1.88l1.61-3.24a19.47,19.47,0,0,1-10.33-9.6,19.27,19.27,0,0,1-1.25-3.31,19.5,19.5,0,0,1,13.17-24,20.9,20.9,0,0,1,4.76-.81,23.85,23.85,0,0,1,8,1l.48.14.4.14.79.28c.52.2,1,.41,1.56.64a32.66,32.66,0,0,1,3.17,1.61,26,26,0,0,1,6.62,5.46,25.33,25.33,0,0,1,1.57,2c.25.37.49.74.72,1.12s.52.92.75,1.39a24.34,24.34,0,0,1,2,5.77c.39-1.18,1.18-.6,1.79-.38l0,.24,0-.24c.51.19,1,0,.64-2.24.35,2.26-.13,2.43-.64,2.24a23.58,23.58,0,0,0-1.64-6.4c-.22-.52-.49-1.11-.72-1.56s-.46-.86-.71-1.29a24.37,24.37,0,0,0-8.8-8.67,26.07,26.07,0,0,0-3.56-1.76,28.19,28.19,0,0,0-3.57-1.19,26.13,26.13,0,0,0-8.73-.73,24.07,24.07,0,0,0-5.06,1,22.63,22.63,0,0,0-5.87,2.8,22.31,22.31,0,0,0-5.78,5.64,22.79,22.79,0,0,0-2.13,3.74,22.63,22.63,0,0,0-1.92,9,19.7,19.7,0,0,0,.11,2.21c.07.71.16,1.48.29,2.13a24.26,24.26,0,0,0,2.55,7.07,25.15,25.15,0,0,0,1.77,2.8,26.3,26.3,0,0,0,2,2.4,25.44,25.44,0,0,0,4.74,3.95,25.54,25.54,0,0,1-7.13-6.52,24.26,24.26,0,0,1-4.54-10.68,22.88,22.88,0,0,1,0-7.25,22.1,22.1,0,0,1,.89-3.65,21.65,21.65,0,0,1,1.43-3.34,23.16,23.16,0,0,1,6.53-7.7,23.75,23.75,0,0,1,2.47-1.62,24.67,24.67,0,0,1,8.86-3,26.45,26.45,0,0,1,7.33,0c.6.09,1.18.18,1.79.31l.9.2.77.2a28.52,28.52,0,0,1,2.92,1,27.64,27.64,0,0,1,6,3.26,25.36,25.36,0,0,1,5.9,6c.44.64.87,1.31,1.27,2l.57,1.07c.17.33.4.84.58,1.26A24.13,24.13,0,0,1,254,300a23.71,23.71,0,0,1-4.18,5.38,23.31,23.31,0,0,1-20.25,6,23.76,23.76,0,0,1-3-.74,25.06,25.06,0,0,1-15.93-15.36A21.56,21.56,0,0,1,210,293l-.17-.68-.11-.55-.19-1.06a26.81,26.81,0,0,1-.33-3.72,42.75,42.75,0,0,1,4.06-8.19c1.23-2,2.2-3.51,2.9-4.88,1.85,1.38,5.14,2.47,7.41,3.78a6.84,6.84,0,0,1,2.45,2c.41.69.33,1.34-.51,2.32l3.43,1.22c2.83-1,7.12.39,10.86,2.29a29.31,29.31,0,0,1,2.72,1.49c.85.54,1.65,1.08,2.39,1.57s1.41,1,2,1.37c.3.2.59.35.84.5l.09.06,0,0-.12-.06-.65-.33-1.38-.65a46.37,46.37,0,0,0-4.9-2,20.87,20.87,0,0,0-3.29-.84,7.12,7.12,0,0,0-1.77-.1l-.19,0h-.08l-1.87.41h.11a3,3,0,0,0,.52-.2c.31-.16.46-.32.37-.23a2.73,2.73,0,0,0-.52.92,2.17,2.17,0,0,0-.13,1s0,0-.15-.17a2.12,2.12,0,0,0-1.08-.45,1.83,1.83,0,0,0,.26,0l.15-.05.08,0,0,0h0l-.82.39-.09.05-.12.07a5.21,5.21,0,0,0-1.44,1.63,7.52,7.52,0,0,0-.47,1c0,.13-.08.22-.1.29v.05h0c-.49,1.89.66-2.58.54-2.12v0a1.05,1.05,0,0,0-.06.24c-.07.39,0,.23,0-.29a6,6,0,0,0-.48-2,2.72,2.72,0,0,0-.69-1l0,0h0l-.18-.08h0l-.06,0c-.06,0,0,0,0,0h.14a2.58,2.58,0,0,0,1.23-.45,2.43,2.43,0,0,0,.46-.38,2.42,2.42,0,0,0-.31.82s0,.08,0,.12v.13h0c0,.39.22-3.43.12-1.81h0v-.11a1.34,1.34,0,0,0,0-.21,1.64,1.64,0,0,0,0-.32,13.62,13.62,0,0,0-2.09-4.74,36.8,36.8,0,0,0-2.54-3.56l-.23-.3.06.06a1.2,1.2,0,0,0,.16.17l.57.55c.25.21.52.46.81.74l.22.21.06,0,5.39,5.84.25.27.67.71c.5.51.38.38.05,0l-.59-.61-.35-.38-2.76-3h0l-.06,0-.12.08-.23.12a2.58,2.58,0,0,1-.37.16.44.44,0,0,1-.22.05s0,0,0,0h0l.07.13c.18.36.33.61.47.94a9.76,9.76,0,0,1,.85,2.57l0,.32v.16l-.12,1.82v-.08a.61.61,0,0,1,0-.15,1.67,1.67,0,0,1,.08-.32c.15-.53.42-.68.07-.35a3.73,3.73,0,0,1-.76.48,2.29,2.29,0,0,1-.8.2h-.12l.06,0,0,0h0l.19.08h0c-.14-.08,0,0,.18.19a5.34,5.34,0,0,1,.93,2.5,5.28,5.28,0,0,0-.92-2.48c-.2-.24-.31-.28-.2-.22-.33-.17-.32-.1-.16-.1a2.32,2.32,0,0,0,.79-.19,3.4,3.4,0,0,0,.78-.48c.17-.16.2-.22.17-.17a1.78,1.78,0,0,0-.23.51,1.67,1.67,0,0,0-.08.32.61.61,0,0,0,0,.15v.08l.12-1.82v-.16l0-.31a9.4,9.4,0,0,0-.83-2.53l-.19-.4a.18.18,0,0,0,.05.07.32.32,0,0,0,.13.1.91.91,0,0,0,.43.11,2.24,2.24,0,0,0,.57,0l.34-.05.17,0,.09,0h.08l1.51,1.63.17.19-.2-.22-.05-.05h0l-1.12-1.2h0l0,0,0,0,.11.13.46.54.94,1.06a26.17,26.17,0,0,0,1.93,2l.05-.06,0,0h0l.08.06.14.12a3.42,3.42,0,0,0,.89.54.65.65,0,0,0,.18,0h0l.32-.06h0a.41.41,0,0,0-.12.09l0,.09v0a1.13,1.13,0,0,0,0-.2,1.49,1.49,0,0,0-1-1.66,2.31,2.31,0,0,0-1.42,0,7,7,0,0,0-1.33.58,5.1,5.1,0,0,1-2.14.73,2.17,2.17,0,0,1-1.87-1.52,6.37,6.37,0,0,1,1.07-5.63,12.55,12.55,0,0,1,12.41-5c.3.08.61.16.92.26s.66.24,1,.39.65.29,1,.48a11.42,11.42,0,0,1,1.09.67,13.56,13.56,0,0,1,4.26,4.68,14.67,14.67,0,0,1,.82,1.74q.18.45.33.93l.15.47.1.27a15.44,15.44,0,0,1,.59,2.2A17.21,17.21,0,0,1,253.37,290.12Z"/><path class="b1694c99-5f00-4b18-beca-40bcf160558c" d="M784.78,426.1a15.79,15.79,0,0,1-2.32,4.71,13.86,13.86,0,0,1-2,2.26,9.8,9.8,0,0,1-1.5,1.17l-.62.26-1.26.55-2.7,1.26a30.93,30.93,0,0,1-7.17,2.49,20.33,20.33,0,0,1-4.83.37c-.44,0-.84-.05-1.31-.11s-1.12-.16-1.68-.27a16.33,16.33,0,0,1-7.85-4.18,16,16,0,0,1-3.42-4.85,19.83,19.83,0,0,1-1.26-4.75,15.64,15.64,0,0,1,.3-5.78,14.3,14.3,0,0,1,2.44-5.22,14.65,14.65,0,0,1,3.86-3.64,16.76,16.76,0,0,1,7.39-2.56,17.5,17.5,0,0,1,3.15,0c.51,0,1,.11,1.52.2a13.71,13.71,0,0,1,1.45.33l-.37-.14-.43-.14c-.29-.1-.59-.19-.88-.26q-.88-.22-1.77-.36a16.78,16.78,0,0,0-3.78-.14,15.66,15.66,0,0,0-4.39,1,15.12,15.12,0,0,0-7.19,5.65,15.42,15.42,0,0,0-2.5,10.4,16.81,16.81,0,0,0,1.88,5.94,18.58,18.58,0,0,0,7.19,7.34,17.59,17.59,0,0,0,5.37,2c1.13.22,1.78.29,2.6.38A23,23,0,0,0,765,440a27.11,27.11,0,0,0,4.31-.43,49.86,49.86,0,0,0,6.82-1.84l2.78-.93,1.29-.41c.22-.08.41-.12.65-.22a11,11,0,0,0,1.59-1.19c-.27.7-.5,1.29-.67,1.8,0,.12-.08.25-.1.35l0,.23,0,.45a6.64,6.64,0,0,1-.11,1.73,4.56,4.56,0,0,1-1.85,2.87,38.17,38.17,0,0,1-11.07,3.95,28.47,28.47,0,0,1-7.83.29l-.61-.06-.68-.09-1.36-.23c-.91-.18-1.7-.4-2.54-.65a24.5,24.5,0,0,1-4.44-1.89l1.62-3.23a19.12,19.12,0,0,1-8.73-6.87,22.55,22.55,0,0,1-1.61-2.73,20.84,20.84,0,0,1-1.24-3.31,19.89,19.89,0,0,1-.55-8.05,19.58,19.58,0,0,1,8.15-13.31,20,20,0,0,1,5.57-2.68,21,21,0,0,1,4.76-.82,23.63,23.63,0,0,1,8,1l.48.14.4.14.78.28c.52.19,1,.41,1.56.63a30.81,30.81,0,0,1,3.18,1.62,25.93,25.93,0,0,1,6.62,5.46,23.59,23.59,0,0,1,1.56,2c.25.37.49.74.73,1.12s.51.91.75,1.38a25,25,0,0,1,2,5.77c.38-1.18,1.18-.6,1.79-.38l0,.25,0-.25c.51.2,1,0,.63-2.23.36,2.26-.12,2.43-.63,2.23a23.33,23.33,0,0,0-1.65-6.4c-.22-.52-.48-1.1-.71-1.55s-.47-.87-.71-1.29a25.4,25.4,0,0,0-1.59-2.35,25.07,25.07,0,0,0-7.21-6.33,28.6,28.6,0,0,0-3.56-1.76,29.27,29.27,0,0,0-3.57-1.18,26.13,26.13,0,0,0-8.73-.73,24,24,0,0,0-5.06,1,22.31,22.31,0,0,0-5.87,2.8,21.8,21.8,0,0,0-5.78,5.63,22.18,22.18,0,0,0-3.56,8.14,22.63,22.63,0,0,0-.49,4.6c0,.79,0,1.48.1,2.21s.17,1.48.3,2.13a24.65,24.65,0,0,0,2.54,7.07,26.75,26.75,0,0,0,1.78,2.8,26,26,0,0,0,2,2.4,25.19,25.19,0,0,0,4.75,3.95,25.58,25.58,0,0,1-7.13-6.53,24.22,24.22,0,0,1-4.55-10.68,23.11,23.11,0,0,1,0-7.24,22.24,22.24,0,0,1,.9-3.66,22.84,22.84,0,0,1,5.5-8.9,25.4,25.4,0,0,1,2.45-2.13,24,24,0,0,1,11.34-4.62,26.45,26.45,0,0,1,7.33,0c.6.08,1.18.17,1.79.31l.9.2.76.2a27.81,27.81,0,0,1,2.93,1,27,27,0,0,1,6,3.27,25.49,25.49,0,0,1,5.9,6,22.78,22.78,0,0,1,1.27,2c.2.35.39.71.57,1.07s.41.84.59,1.27a24.16,24.16,0,0,1,1.14,15.85A23.27,23.27,0,0,1,761,447.36a23.6,23.6,0,0,1-3-.74,25.11,25.11,0,0,1-15.94-15.36c-.21-.58-.46-1.39-.69-2.26,0-.22-.1-.44-.16-.67l-.12-.55c-.06-.35-.12-.71-.19-1.07a26.45,26.45,0,0,1-.32-3.72,42.81,42.81,0,0,1,4-8.19c1.23-2,2.2-3.51,2.91-4.87,1.85,1.37,5.13,2.47,7.4,3.78a6.88,6.88,0,0,1,2.46,2c.41.69.33,1.35-.52,2.32l3.44,1.23c2.83-1,7.12.39,10.85,2.28a30.85,30.85,0,0,1,2.73,1.49c.85.54,1.65,1.09,2.39,1.58s1.41,1,2,1.36c.29.2.58.36.83.51l.1.05,0,0-.12-.06-.66-.32-1.38-.66a46,46,0,0,0-4.89-2,20.27,20.27,0,0,0-3.29-.85,7.5,7.5,0,0,0-1.77-.09l-.19,0-.07,0h0L765,423h.05l.07,0a2.82,2.82,0,0,0,.51-.19,1.63,1.63,0,0,0,.37-.24,3.07,3.07,0,0,0-.51.93,2.22,2.22,0,0,0-.14,1.05s.05,0-.15-.17a2,2,0,0,0-1.08-.46.82.82,0,0,0,.27-.05l.15-.05.07,0,0,0h0l-.82.39-.08,0a1.25,1.25,0,0,0-.12.08,5.09,5.09,0,0,0-1.44,1.63,6,6,0,0,0-.47,1c0,.12-.08.22-.1.28v0h0c-.48,1.89.67-2.57.55-2.11v0c0,.08,0,.16-.05.23-.08.39,0,.23,0-.29a6,6,0,0,0-.48-1.94,2.67,2.67,0,0,0-.7-1s0,0,0,0h0l-.18-.08h0l-.06,0c-.06,0,0,0,0,0h.14a2.7,2.7,0,0,0,1.23-.45,3.37,3.37,0,0,0,.46-.38,2.22,2.22,0,0,0-.31.81.51.51,0,0,0,0,.13v.12h0c0,.4.22-3.42.11-1.81h0a.38.38,0,0,0,0-.1,1.5,1.5,0,0,0,0-.22,1.65,1.65,0,0,0,0-.32,13.83,13.83,0,0,0-2.09-4.74,37.2,37.2,0,0,0-2.54-3.55l-.23-.3.05.06.17.16.57.55.81.74.22.21.06.06,5.39,5.84.25.27.67.7c.5.51.38.39,0,.05l-.58-.62-.36-.38-2.75-3h0l-.06,0-.13.07-.22.13a2.58,2.58,0,0,1-.37.16c-.1,0-.18.06-.22,0h0l.07.12c.19.37.33.62.47.95a9.28,9.28,0,0,1,.85,2.57l0,.31v.17l-.12,1.82v-.09l0-.15a1.55,1.55,0,0,1,.07-.31c.16-.54.43-.69.08-.35a3.35,3.35,0,0,1-.76.47,2.16,2.16,0,0,1-.8.2h-.12l.06,0h0l.18.08h0c-.14-.07,0,0,.17.2a5.1,5.1,0,0,1,.93,2.49,5.17,5.17,0,0,0-.91-2.47c-.2-.24-.31-.28-.2-.22-.34-.17-.32-.1-.16-.11a2.2,2.2,0,0,0,.78-.18,3.53,3.53,0,0,0,.78-.48c.18-.16.21-.22.17-.17a2.64,2.64,0,0,0-.23.51,1.55,1.55,0,0,0-.07.31l0,.15v.08l.12-1.81v-.17l0-.3a9.78,9.78,0,0,0-.83-2.53l-.19-.4a.16.16,0,0,0,0,.07.5.5,0,0,0,.14.1,1,1,0,0,0,.42.11,2.91,2.91,0,0,0,.58,0l.33-.05.18,0,.09,0h.07l1.52,1.64.17.19-.2-.22,0-.05h0l-1.11-1.21h0l0,0,.12.13.46.53.93,1.07c.63.7,1.27,1.38,1.93,2l.06-.05,0,0h0l.07.06.15.12a3.25,3.25,0,0,0,.88.54.7.7,0,0,0,.19,0h0l.31-.06h0a.44.44,0,0,0-.11.1l0,.08v0a1,1,0,0,0,0-.19,1.48,1.48,0,0,0-1-1.66,2.42,2.42,0,0,0-1.43,0,8.9,8.9,0,0,0-1.32.58,4.83,4.83,0,0,1-2.15.73,2.14,2.14,0,0,1-1.86-1.51,6.38,6.38,0,0,1,1.07-5.64,12.56,12.56,0,0,1,12.4-5c.31.07.62.16.92.26s.67.24,1,.38.66.29,1,.48.73.43,1.09.67a13.83,13.83,0,0,1,4.25,4.68,15.46,15.46,0,0,1,.82,1.74c.13.31.24.62.34.93l.15.48.09.27a15.46,15.46,0,0,1,.6,2.2A17.58,17.58,0,0,1,784.78,426.1Z"/></svg>