<svg id="f702baf0-9ed2-4bb9-85cd-733383881ee3" data-name="Layer 1" xmlns="http://www.w3.org/2000/svg" viewBox="0 0 800 800"><defs><style>.a6ae4eec-5826-4de8-926a-6f41d3a2d065{fill:#f9a320;}.a88fb933-9b65-40c3-b7b7-918577d15774{fill:#6300a3;}</style></defs><title>Crickle-logo</title><path class="a6ae4eec-5826-4de8-926a-6f41d3a2d065" d="M330.7,482.61c18.83-8.7,40.83-15.89,63.26-21.26s45.24-9.11,66-12.32a377.9,377.9,0,0,1,38.2-4.13c6.49-.47,13-.56,19.58-.72,3.27-.07,6.56,0,9.84,0s6.58,0,9.86.23l9.85.43c3.29.2,6.56.48,9.83.72L562,446l4.88.52,9.74,1.07,9.66,1.36,4.8.69,4.77.83,9.47,1.66,9.34,1.91c-.26,1.23-4.75,2.24-.78,3.7a63.59,63.59,0,0,1,9.1,3.59,18.81,18.81,0,0,1,4.41,2.79,3.48,3.48,0,0,1,1.13,4.07c-.3,1.22-12-2.84-8.31-.67-3-.75-6.52-1.44-9.94-2s-6.7-1.22-9.26-1.49c-5.11-.57-7.2-.46-1.26,1.21,3.8,1.9,20.07,4,23.58,6.94s-4.82,2.74-1.32,5.51c3.94.85,11.71,3,15.6,4,3.53,2.26-4.88,2.61-1,3.64,11.17,4.44,26.55,8.61,41.4,14.41-.23.58.49,1.54.3,2.06s-1.34.57-5.14-.5a437.48,437.48,0,0,0-101.35-24A470.15,470.15,0,0,0,466.93,477c-69.67,7.58-137.48,30.49-196.22,66.51-13.63,7.9-5.12-.54,4.07-8.48-3.08,2.58-4,1-7.09,3.69-.51-.8.51-2.93,3.33-6a55.22,55.22,0,0,1,5.74-5.11,77,77,0,0,1,8.75-6c-3.57,1.89-7,4-10.51,6.05-3.8,1.51-1-1.62-1.6-2.71,3.51-2.07,7-4.13,6.7-4.68L278.86,518c-3.52,2.11-10.64,6.18-14.09,8.39,3.45-2.21,7-4.2,6.7-4.77s-1-1.62-1.29-2.17c1.7-1.18,3.68-2.39,5.81-3.62s4.45-2.36,6.74-3.55,4.6-2.34,6.76-3.5,4.24-2.19,6-3.27l-.86-1.68c-1.92.8-4,1.78-6.24,2.89s-4.44,2.42-6.7,3.7-4.52,2.54-6.61,3.85-4.08,2.51-5.87,3.56c3.26-2.65,2.94-3.2,2.31-4.29,1.31-.85,2.63-1.7,4-2.48s2.75-1.5,4.13-2.23l8.35-4.27c2.83-1.35,5.63-2.73,8.37-4.23,1.37-.75,2.72-1.55,4.06-2.35s2.7-1.61,4-2.49c-3.8,1.73-7.51,3.64-11.22,5.53a29.29,29.29,0,0,1,6.76-5c2.92-1.62,6.35-3.23,9.94-4.83s7.39-3,11-4.48l5.17-2.13C327.7,483.92,329.27,483.26,330.7,482.61Z"/><path class="a88fb933-9b65-40c3-b7b7-918577d15774" d="M122.88,449.32a30.43,30.43,0,0,1-4,4.07,42.23,42.23,0,0,1-8.79,5.85c-1.4.7-2.78,1.34-4.13,1.89s-2.75,1.08-3.92,1.46a113.67,113.67,0,0,1-14.91,4.19,85.44,85.44,0,0,1-16,1.84A60.46,60.46,0,0,1,54,466.37l-1.51-.47c-.51-.17-1-.38-1.53-.56l-3.06-1.14-3.06-1.35-1.53-.68-1.51-.8a59.06,59.06,0,0,1-11.48-7.72,51.49,51.49,0,0,1-9.15-10.43,39.82,39.82,0,0,1-3.32-6c-.46-1-.95-2.06-1.35-3.11L15.41,431A47.9,47.9,0,0,0,32.61,457a52,52,0,0,0,13.9,7.81,67.68,67.68,0,0,0,15,3.69,92,92,0,0,0,14.79.5,118,118,0,0,0,14.27-1.68c4.68-.87,9.23-2,13.86-3.33a57.88,57.88,0,0,0,7.87-3.1,41.18,41.18,0,0,0,8.55-5.47,27.66,27.66,0,0,1-13.29,13.76c-1,.39-1.69.63-2.48.89l-2.34.8c-1.56.54-3.15.95-4.72,1.42-3.16.88-6.34,1.63-9.57,2.23a99.34,99.34,0,0,1-19.85,1.74l0-3.68a55.94,55.94,0,0,1-7,.21c-1.18,0-2.37-.16-3.56-.26l-1.77-.18c-.6-.08-1.2-.19-1.79-.3-1.2-.21-2.39-.43-3.57-.68s-2.38-.65-3.56-1a30.05,30.05,0,0,1-3.52-1.23c-1.16-.47-2.33-.89-3.46-1.45A52.6,52.6,0,0,1,33.69,464a51.25,51.25,0,0,1-6-4.63,53,53,0,0,1-9.74-11.5,55.79,55.79,0,0,1-3.57-6.58c-.5-1.16-1-2.34-1.43-3.51L12.22,436l-.53-1.79a60.6,60.6,0,0,1-2.56-14.51L9,416.09c0-1.21.06-2.39.09-3.59l.06-1.8.16-1.77c.12-1.18.22-2.37.36-3.55a107.25,107.25,0,0,1,2.9-14c-1,1.09-1.37.06-1.81-.44l.1-.27-.1.27c-.39-.45-.83-.46-1.72,1.86.89-2.32,1.33-2.31,1.72-1.86a76.25,76.25,0,0,0-3.86,14c-.19,1.2-.33,2.42-.49,3.64l-.22,1.82-.1,1.85c0,1.24-.14,2.47-.14,3.71l.12,3.75a58.13,58.13,0,0,0,2.78,15A59.18,59.18,0,0,0,11.72,442a57.42,57.42,0,0,0,3.79,6.72A59.58,59.58,0,0,0,25.6,460.35c1,.83,2,1.64,3,2.45l1.53,1.2c.53.37,1.07.72,1.61,1.08,1.08.71,2.17,1.42,3.27,2.11L38.44,469c.57.3,1.14.6,1.72.88l1.75.74c1.17.49,2.35,1,3.54,1.44a73.2,73.2,0,0,0,7.17,2.13A77.45,77.45,0,0,0,67,476.28a74,74,0,0,1-22.62-4.14L41.58,471c-.93-.38-1.87-.74-2.79-1.21L36,468.45l-1.36-.7-1.33-.81a52.08,52.08,0,0,1-5.16-3.45,60.84,60.84,0,0,1-4.83-4A57.86,57.86,0,0,1,9.11,439.26,59.66,59.66,0,0,1,4.44,415.2,69.22,69.22,0,0,1,8.7,392.43a74,74,0,0,1,11-19.9l.88-1.14.94-1.1,1.91-2.19c1.29-1.45,2.74-2.79,4.13-4.17s2.82-2.46,4.26-3.67,2.95-2.27,4.48-3.32a89.24,89.24,0,0,1,19.35-10c2.28-.91,6.88-2.35,9.18-3,9.91.2,18.79,0,27.63-.34-1,2.36.76,5.77.57,8.44a3.58,3.58,0,0,1-2.13,3.24,10.6,10.6,0,0,1-3.06.86,40.26,40.26,0,0,1-5,.3l.46,3.67c8.08,1.36,13.27,5.91,14.53,10.15a6.91,6.91,0,0,1,.33,3.16A7.63,7.63,0,0,1,97,376.35a9,9,0,0,1-2.49,2.48,16.6,16.6,0,0,1-3.91,2c-7,2.32-14.65,3.74-21.78,6.4a42.67,42.67,0,0,0-9.79,5A20.93,20.93,0,0,0,57,393.9l-1,.86c-.3.28-.53.57-.8.85l-.78.85-.7,1c-.22.32-.47.62-.67.95l-.58,1a31.24,31.24,0,0,0-2.91,6.13,34.9,34.9,0,0,0-1.65,6.21,37.18,37.18,0,0,0-.59,5.67c0,1.74-.07,3.39.05,5A12.11,12.11,0,0,0,50,429.2a17.94,17.94,0,0,0,6.37,5.1,34.27,34.27,0,0,0,9.81,2.92,83.17,83.17,0,0,0,12.15.87c3.08-.18,7.1-1.81,10.57-3.48l1.29-.6.64-.29.48-.24c.65-.3,1.21-.57,1.73-.77a3.14,3.14,0,0,1,2.51-.2,5.53,5.53,0,0,1,2.3,1.24A12.57,12.57,0,0,1,99.92,436a23.53,23.53,0,0,1-5.51,3.29c-1.06.48-2.49,1-3.74,1.48s-2.62.89-3.93,1.33a62.39,62.39,0,0,1-15.94,2.69c-6.43-.1-12.54-1.42-17.32-4A23,23,0,0,1,47.31,436a20.34,20.34,0,0,1-4.05-6.11A18.29,18.29,0,0,0,47,436.19l1.31,1.42,1.49,1.25A11.23,11.23,0,0,0,51.41,440a12.61,12.61,0,0,0,1.74,1.06C58,443.75,64.27,445,70.8,444.77a65.74,65.74,0,0,0,16.08-1.9c1.33-.34,2.68-.7,4-1.09l2-.64,1-.32.9-.31a27.09,27.09,0,0,0,6.17-3.07c1.07,1.58,2,3.38,3.73,4.3l.42-.37c.25-.24.58-.58.94-1a12.79,12.79,0,0,0,1.75-2.48c3.52-1.68,6.06-4.09,8.89-4.07a5.53,5.53,0,0,1,4,1.82,8.8,8.8,0,0,1,1.63,2.4,12.52,12.52,0,0,1,1,3.27A26.37,26.37,0,0,1,122.88,449.32Z"/><path class="a88fb933-9b65-40c3-b7b7-918577d15774" d="M205.93,376l-2-1.19a141.43,141.43,0,0,0-19.59-8.12A189.7,189.7,0,0,0,166,360.87a13.17,13.17,0,0,0-4-.6,8.66,8.66,0,0,0-3.3.68,9.11,9.11,0,0,0-2.29,1.44,11.31,11.31,0,0,0-1,1,14.9,14.9,0,0,0-1.83,2.48l-.77,1.44a25.06,25.06,0,0,0-1.25,3,20.91,20.91,0,0,1,1.61-2.92c.32-.43.6-.91.92-1.31a12.19,12.19,0,0,1,1-1.14,11.92,11.92,0,0,1,1-1,5.14,5.14,0,0,1,.5-.4,5.74,5.74,0,0,1,.5-.36,9.58,9.58,0,0,1,5.34-1.74,20.37,20.37,0,0,1,4.3.3,54.08,54.08,0,0,1,11.09,3.43c2,.83,4.29,1.78,6.44,2.73s4.3,1.94,6.42,3c4.24,2.05,8.37,4.26,12.36,6.67-3,1.38-6.37,2.21-9.7,1.22q-5.82-2.42-11.62-4.61L176.09,372q-2.58-.94-4.8-1.64c.22-.91.63-2.69.84-3.58l-4.17-.3c-1.23-.07-2.29-.08-3.19-.1-.4,0-.84,0-1.16,0s-.64.06-.84,0c-.42,0-.85.06-1.31.12a6,6,0,0,0-1.38.4,5.48,5.48,0,0,0-1.61,1,10.91,10.91,0,0,0-1.66,1.94,12.6,12.6,0,0,0-1.33,2.59c-1.5,3.86-1.35,9.68,1.16,15.7.38-.74,1.19-.45,1.81-.4l0,.13,0-.13c.55.05.9-.12.77-1.21.13,1.09-.22,1.26-.77,1.21-1.24-6-1.21-11.23-.13-14.51.1-.44.31-.77.43-1.17s.37-.67.51-1a9.87,9.87,0,0,1,1.16-1.67,3.71,3.71,0,0,1,1.05-.85,2.83,2.83,0,0,1,.86-.26,12.51,12.51,0,0,1,2.28.24c.7.12,1.54.27,2.58.55.48.11,1.07.3,1.61.45s1.17.35,1.84.59c-.67-.21-1.23-.34-1.84-.51s-1.14-.28-1.61-.35a20.1,20.1,0,0,0-2.56-.36,6,6,0,0,0-2,.07,2.31,2.31,0,0,0-.54.28l-.12.1,0,0a.81.81,0,0,0-.1.09c-.13.12-.26.28-.41.45s-.28.37-.42.58-.26.53-.42.76a5.42,5.42,0,0,0-.4.84,5,5,0,0,0-.34.94c-.88,2.57-1.14,6.73-.46,11.85.34,2.56.87,5.32,1.56,8.24s1.5,6,2.42,9.3c1.81,6.53,3.71,13,5.76,19.4.44,1.38,1.34,4.11,1.81,5.46a33,33,0,0,0,2.69,17.32c-2.41.25-5.18,2.62-7.69,3.52s-4.87.24-6.24-5.75l-3.45,1.35c.06,6.55-2.15,12.27-5.56,15.17a7.27,7.27,0,0,1-5.84,1.79c-2.14-.35-4.42-1.76-6.57-4.52-4.62-6.31-7.66-14.66-10.15-23.38-1.24-4.37-2.37-8.83-3.55-13.25-.59-2.2-1.2-4.4-1.85-6.56-.33-1.08-.66-2.15-1-3.22s-.73-2.23-1.12-3.33a94.91,94.91,0,0,1-4.52-22.26c-.15-2.07-.15-4.28-.09-6.47q.09-1.69.24-3.39c.09-1.13.3-2.33.47-3.48a49.24,49.24,0,0,1,4.61-14.19l2-3.43c.66-1.14,1.45-2.23,2.19-3.33a49.81,49.81,0,0,1,5.2-6.43q1.45-1.54,3.08-3a43.26,43.26,0,0,1,3.56-2.86,42.46,42.46,0,0,1,7.83-4.54c1.22-.5,2.44-1,3.68-1.42s2.51-.8,3.79-1.07,2.57-.57,3.86-.72,2.48-.3,3.66-.35a50,50,0,0,1,12.82,1,59.58,59.58,0,0,1,10.11,3.06,68.73,68.73,0,0,1,8,3.81c5.67,2.66,16.85,3.08,19,6.63,1.75,1.91,1.27,3.82.32,5.84l-29.21-9.47a66.66,66.66,0,0,0-14.7-3.56,39.84,39.84,0,0,0-8.89-.06,37.81,37.81,0,0,0-9.56,2.32,37,37,0,0,0-8.08,4.48c-.62.46-1.25.93-1.86,1.45s-1.15,1-1.71,1.48a42.94,42.94,0,0,0-3.15,3.18q1.54-1.61,3.25-3.06c.56-.48,1.14-1,1.74-1.42s1.25-1,1.89-1.39a38.18,38.18,0,0,1,8.12-4.32,39.1,39.1,0,0,1,9.35-2.24,41.58,41.58,0,0,1,8.78,0,75.75,75.75,0,0,1,14.82,3.16c2.59.89,5.07,1.86,7.37,2.75l7,2.74c4.68,1.83,9.35,3.68,14,5.59a11.25,11.25,0,0,0-1.73,5.42l4.45,1.33c4.62,6.2,1.28,12-3,15.54C208.33,374.52,207.18,375.29,205.93,376Z"/><path class="a88fb933-9b65-40c3-b7b7-918577d15774" d="M379.62,427.88l-2.67.56c-8.09,2.08-16.25,5.27-25.38,7.84s-19.38,4.49-30.54,3.15a103.14,103.14,0,0,1-11.94-2.57A60.84,60.84,0,0,1,297,432.08c-7.71-4.09-14.66-10.1-19.09-17.7a44.86,44.86,0,0,0,9.39,12,51.15,51.15,0,0,0,12.5,8.38c9.29,4.35,19.09,5.73,28.4,5.61a101.15,101.15,0,0,0,13.63-1.15c4.42-.67,8.76-1.56,12.88-2.53,8.28-1.94,16-4.15,23.34-5.65a17.71,17.71,0,0,1-8.49,8c-5.09,1.69-10.45,3.38-16.07,4.85a122.26,122.26,0,0,1-17.81,3.31c-.13-.92-.38-2.73-.51-3.64a57.43,57.43,0,0,1-26.35-.26,53.66,53.66,0,0,1-6.68-2.11c-1.13-.43-2.24-.89-3.32-1.41s-2.16-1-3.19-1.62a55.58,55.58,0,0,1-11.47-8.41,52.94,52.94,0,0,1-9.1-11.38,49.4,49.4,0,0,1-5.74-14.21,52.24,52.24,0,0,1-1.14-15.4,68.9,68.9,0,0,1,2.74-14.69c-1,1.09-1.38.05-1.81-.47l.11-.26-.11.26c-.37-.44-.86-.49-1.78,1.95.92-2.44,1.41-2.39,1.78-1.95a57.19,57.19,0,0,0-3.73,14.88,48.51,48.51,0,0,0,7,31,55.17,55.17,0,0,0,9.65,11.63,59.72,59.72,0,0,0,11.86,8.45A62.88,62.88,0,0,0,307.36,445a80,80,0,0,0,26.91,2.39,84.35,84.35,0,0,1-21-.59,69.52,69.52,0,0,1-10.84-2.63,61.11,61.11,0,0,1-10.7-4.75,58.19,58.19,0,0,1-17.93-15.52,50,50,0,0,1-6.38-11A48.62,48.62,0,0,1,264,400,53.22,53.22,0,0,1,267,375.21a60.19,60.19,0,0,1,5.12-10.59,63.94,63.94,0,0,1,6.83-9.23,80.42,80.42,0,0,1,16-13.72,121.12,121.12,0,0,1,16.78-9.14c1.91-.88,5.81-2.53,7.79-3.28a159.4,159.4,0,0,0,25.05-3.58c-.52,2.47,1.69,5.56,2,8.23a3.59,3.59,0,0,1-1.42,3.52c-1.28,1-3.52,1.73-7.3,2.3l1,3.57c7.79.22,13.44,3.78,15.38,7.77a7.25,7.25,0,0,1,.86,3.06,7.53,7.53,0,0,1-.56,3.05c-.83,2-2.58,3.84-5.38,5.46-6.36,3.4-13.91,5.89-21.64,9.31a69.61,69.61,0,0,0-10.6,5.58,22.51,22.51,0,0,0-6.94,6.73,21.81,21.81,0,0,0-1.38,2.38,20.74,20.74,0,0,0-1,2.34,17.23,17.23,0,0,0-.92,4.08,11.49,11.49,0,0,0-.08,1.46c0,.42,0,.76,0,1.09a11.2,11.2,0,0,0,.26,2.74,10.35,10.35,0,0,0,3.7,5.44,18.81,18.81,0,0,0,7.4,3.65c6.11,1.72,14.15,1.54,22.68.89,3.1-.43,7.13-2.35,10.93-4.16s7.44-3.42,9.65-2.88c2.91.16,3.82,1.91,4.35,4.09-5.54,2.29-10.88,4.53-16.15,6.36a81.62,81.62,0,0,1-15.5,4,44.62,44.62,0,0,1-17.53-1.43,30.5,30.5,0,0,1-3.72-1.43A25.62,25.62,0,0,1,309.5,411a22.55,22.55,0,0,1-5.15-4.85,19.44,19.44,0,0,0,4.89,5.13,23.11,23.11,0,0,0,3.16,2,29,29,0,0,0,3.75,1.48c5.25,1.67,11.45,1.88,17.78,1,10.2-.95,20.91-4.66,32-8.56.38,1.9.8,3.87,2.2,5.25l5-2.23c8.6,1.29,9.37,8,8,13.68C380.74,425.06,380.23,426.45,379.62,427.88Z"/><path class="a88fb933-9b65-40c3-b7b7-918577d15774" d="M400,442.61c.1-.79.2-1.58.29-2.37,1-14.4-1.59-28.36-1.66-44.22.51-11.16-1.93-23.56-3.26-34.5,1.46,26.14,5.42,53.32,2.09,79-2.48-2.25-4.58-5-5-8.55-.17-8.54-.58-16.94-1.18-25.24l3.66-.44c-5.62-23.12-.93-45.9-8.38-68.79-.39.9-1.2.49-1.82.39,0-.06,0-.11,0-.16s0,.1,0,.16c-.54-.09-.93.05-.75,1.51-.18-1.46.21-1.6.75-1.51,3.71,23,5.45,44.64,6.47,67.89-2.63-36-8.63-70.24-13.09-106.91l-.76-6.25a46,46,0,0,0,1.39-19.21c4.79,1,13.23-6.37,12.91,6.36l3.68-.44c3.07-13.07,15.38-19.33,20.58-7.27,5.39,13.62,4,32.82,7.93,49.79,2.45,12.4,4.89,24.79,4.57,37.52-.66,17.53,2.55,36.18,1,53.82-.16,6.37,3.93,17,1.56,20.44-1.05,2.4-3,2.73-5.22,2.65-.93-10.31-2.08-20.57-2.91-30.75-.49-12.56-.85-25.13-.54-37.77-1,12.45-.5,25.05.54,37.77.39,10.21.86,20.42,1.1,30.65a11,11,0,0,0-5.66.58l.57,4.69c-3.84,6.81-10.47,6-15.45,3.47C402.31,444.24,401.15,443.48,400,442.61Z"/><path class="a88fb933-9b65-40c3-b7b7-918577d15774" d="M497.59,421.27c-.41-.6-.88-1.13-1.33-1.69-4.34-4.93-9.89-8.69-16.13-12s-13.23-6.13-20.74-9.66a83.77,83.77,0,0,0-8.27-3.76l-2.2-.85-1.11-.41-1.65-.59L439.54,390c-4.46-1.52-8.74-3.21-13.05-4.83l-5.89-2.71-1.45-.67c-.24-.11-.49-.22-.71-.34l-.6-.37-2.35-1.49,2.58,1.84c1,.59,2.1,1.13,3.15,1.69l3.22,1.69c.55.28,1.07.58,1.65.85l1.78.76c2.4,1,4.77,2.08,7.25,3.07l7.56,2.93,6.68,2.48,5,1.9c3.29,1.27,6.55,2.55,9.68,3.9,12.56,5.33,23.65,11.95,30.51,21.18A18.81,18.81,0,0,1,490,422a8.5,8.5,0,0,1-4.15-1.28,92.24,92.24,0,0,0-20-11.38l1.29-3.45a152.38,152.38,0,0,1-16.57-5.18c-1.37-.51-2.76-1-4.17-1.6l-.52-.21-.85-.32-1.82-.68c-1.21-.47-2.43-.92-3.61-1.41l-7.06-2.88c-1.18-.47-2.31-1-3.41-1.49l-3.33-1.51-3.3-1.51-.82-.37-.74-.42-1.47-.83-5.88-3.27c-1.64-1.17-3.09-2.38-4.67-3.54L406.59,379l-2.12-1.74c-2.83-2.3-5.71-4.6-9.1-7.49l-.64-.55-.32-.28-.11-.19-.45-.75c-.32-.5-.65-1-1-1.51a32.18,32.18,0,0,0-3.3-3.78c1.34-1.05,2.65-2.08,4-3.19-2.43,1-2.89.39-3.61.14l.32-.21-.32.21c-.61-.22-1.56-.08-4.44,1.78,2.88-1.86,3.83-2,4.44-1.78-1.59,1.08-3.18,2.14-4.72,3.17l1.92,2.17.48.54.23.27.16.2.62.79,1.22,1.56a8.55,8.55,0,0,0,1.64,1.82c3.37,3.06,6.25,5.53,9.12,8l2.16,1.85c.73.62,1.61,1.24,2.41,1.86l4.88,3.73c2,1.14,4.19,2.23,6.28,3.36,1.06.55,2.09,1.13,3.18,1.67l3.54,1.5c2.37,1,4.7,2,7.12,3l7.4,2.86c2.47,1,5,1.89,7.53,2.81l4.14,1.62c5.48,2.15,10.69,4.31,15.73,6.63-5-2.15-10.29-4.11-15.86-6.08L445,401.45c-2.57-.88-5.21-1.78-7.76-2.74l-7.69-2.82c-2.53-1-5-2-7.45-3l-3.71-1.51L415,389.67,411.69,388,410,387.1l-.83-.42-.42-.22-.31-.24-5.06-3.85-1.27-1c-.43-.33-.85-.65-1.2-1l-2.21-1.9c-2.93-2.55-5.85-5.1-9.3-8.24l-.66-.6c-.18-.18-.25-.27-.38-.42l-.71-.79-1.43-1.58-.71-.8-1-1-2.11-2.21L403,349.37l2.57-1.69,2.35-1.68,4.69-3.35c.76-.56,1.61-1.11,2.31-1.69l2.08-1.75,4.17-3.5c1.46-1.18,2.63-2.3,3.91-3.44l3.78-3.42,4.54-4.19,4.25-3.91,4.43-4c1.37-1.18,4-3.53,5.46-4.72,7.39-2.59,13.81-6.45,20.42-10.67.42,2.46,3.53,4.62,4.74,7s.69,4.8-5.49,8.15l2.2,3c.86-.27,1.7-.5,2.53-.68s1.68-.26,2.48-.32a16.87,16.87,0,0,1,4.53.19,12.57,12.57,0,0,1,6.64,3.24,7.86,7.86,0,0,1,1.84,2.58,8.52,8.52,0,0,1,.08,6.24,11.77,11.77,0,0,1-.79,1.65,14.26,14.26,0,0,1-1.15,1.76c-4.15,5.05-10.12,9.9-16.91,15.7-3.36,2.83-7,5.92-10.54,9.12l-.34.31-.23.22-.21.23a.28.28,0,0,0-.07.13.45.45,0,0,0,.16.47,1.16,1.16,0,0,0,.89.38c.26,0,.43,0,.21,0a3.45,3.45,0,0,0-1.24.63,1,1,0,0,0-.39,1.49,2.94,2.94,0,0,0,.6.72l.1.09a1.72,1.72,0,0,0,.3.13l.41.17,1.66.67,3.4,1.35c4.51,1.81,9.21,3.75,13.82,5.91a99.45,99.45,0,0,1,13.53,7.66,29.11,29.11,0,0,0,2.69,1.42c1,.47,2,1,3.09,1.48l3.31,1.47,3.3,1.61c1.07.55,2.13,1.06,3.08,1.65s1.85,1.18,2.63,1.76a8.23,8.23,0,0,1,3.09,3.45c1.5,2.72.39,4.36-1.22,5.9-9.64-7.46-20.54-12.77-31.06-17.32-6.37-3-12.73-5.73-18.91-8.48l-4.59-2.07-.57-.26-.18-.09-.12-.08-.47-.3c-.3-.2-.59-.39-.87-.59a17.73,17.73,0,0,1-2.78-2.33,10.13,10.13,0,0,0,2.53,2.63c.28.22.57.44.88.65l.48.32.25.16c.11.07.35.17.53.26q2.24,1.05,4.58,2.08c6.18,2.73,12.65,5.27,19.24,8.1,10.34,5,20.77,10.8,29.71,18.54-1.45,1.29-2.9,2.67-3.41,4.56l1.57,1.13c.44.32.93.66,1.37,1l1.19,1c1.24,4,.33,6.85-1.49,8.95a16.45,16.45,0,0,1-7.16,4.33C500.24,420.7,498.94,421,497.59,421.27Z"/><path class="a88fb933-9b65-40c3-b7b7-918577d15774" d="M593.66,435.32l-2.84,0c-8.64.39-16.93.92-25.69.8l-1.77-.05-2.24-.1c-1.55-.11-3.11-.26-4.65-.51a34.52,34.52,0,0,1-9-2.63A28.12,28.12,0,0,1,534.05,420a46.24,46.24,0,0,1-2.49-6.37q-.51-1.65-.93-3.33c-.14-.56-.27-1.12-.39-1.7l-.31-1.47c-.69-3.72-1.16-7.26-1.53-10.54-.81-6.66-1.47-13-1.88-19,.05,7.14.3,14.31,1,22,.2,2,.46,4,.83,6.11.21,1.1.38,2.07.68,3.34s.7,2.67,1.13,4a36,36,0,0,0,8.29,14.19,32,32,0,0,0,6.56,5.06,35.32,35.32,0,0,0,7.72,3.2,49.61,49.61,0,0,0,8.37,1.54l3.69.31,3,.21c7.82.53,15.64.7,23.5.69a17.57,17.57,0,0,1-10.48,5.77q-4,.19-8,.22c-1.33,0-2.65,0-4,0l-4.1-.11-2.45-.11c-1.08-.05-2.17-.13-3.24-.24a51.64,51.64,0,0,1-6.36-1A40.84,40.84,0,0,1,541,438.21l1.84-3.19a27,27,0,0,1-3.57-2,28.84,28.84,0,0,1-3.29-2.4,33.38,33.38,0,0,1-5.49-6A42.64,42.64,0,0,1,524,409.7a69.22,69.22,0,0,1-1.52-11.27l-.22-5c-.07-1.65-.07-3.23-.1-4.84l-.12-9.5c0-3.13-.13-6.27-.29-9.39a118,118,0,0,0-2.36-18.85c-.46.92-1.23.41-1.84.24v0c-.53-.15-.93,0-.88,1.56-.05-1.59.35-1.71.88-1.56.43,6.28.81,12.48,1.14,18.65s.68,12.44,1,18.64l.29,4.76.38,4.93a98.31,98.31,0,0,0,1.49,11.13c.19.91.53,2.46.92,3.79s.8,2.71,1.28,4.05a45.08,45.08,0,0,0,3.61,7.71,38.58,38.58,0,0,0,5.1,6.85,41.71,41.71,0,0,0,3.1,3c1.14.89,2.25,1.83,3.47,2.61a38.05,38.05,0,0,1-9.78-9.15,45.54,45.54,0,0,1-6.27-11.86c-.39-1-.72-2.13-1-3.21-.16-.54-.32-1.07-.46-1.63l-.37-1.47c-.39-1.65-.69-3.22-1-4.75-.52-3-.86-5.8-1.11-8.35l-.42-3.9-.33-3.76c-.24-2.53-.4-5-.59-7.44-.37-4.92-.7-9.78-1-14.63-1.17-19.38-2-38.67-2.09-58.71,0-1.7,0-5.13,0-6.84A58.14,58.14,0,0,0,519,280.87c2.28.95,5.81-.24,8.46.08s4.42,2.08,3.35,8.82l3.71.07c2.44-6.7,7.05-11.1,11.38-12.09a7.26,7.26,0,0,1,6,1c1.77,1.26,3.16,3.33,4,6.6,3.3,14.56-.29,34.49,2,52.63,1.26,13.18,2.67,26.32,1.67,39.31a119.43,119.43,0,0,0-.39,13.32c0,1.07.07,2.15.11,3.23s.11,2,.19,2.93.16,1.77.26,2.53c.05.39.1.78.15,1.11,0,.14,0,.2,0,.31a4.89,4.89,0,0,0,.52,2.72,7.85,7.85,0,0,0,2.66,2.75,15.72,15.72,0,0,0,4.6,0c1.82-.19,3.72-.52,5.53-.83,3.6-.62,6.81-1.16,8.51-.07,2.33.91,2.84,2.8,2.94,5A122.63,122.63,0,0,1,569.58,412c-1.26.06-2.52.09-3.78.11H564l-.83,0c-.23,0-.39,0-.58,0a14.16,14.16,0,0,1-4.31-.91,8.39,8.39,0,0,1-3.74-3.57,11.8,11.8,0,0,1-1.31-4.75c0-.2,0-.4,0-.58s-.08-.6-.1-.92c-.06-.63-.11-1.29-.15-2-.07-1.37-.11-2.78-.11-4.31l.07-4.68c0-1.56.13-3.21.21-4.8-.17,1.57-.34,3.18-.44,4.73s-.18,3.11-.23,4.66,0,2.95,0,4.33c0,.68.07,1.36.14,2,0,.33.06.65.1.95s0,.42,0,.65a11.35,11.35,0,0,0,1.49,4.87,8.21,8.21,0,0,0,4,3.4,14.63,14.63,0,0,0,4.26,1.27l.59.09.83.08c.58.05,1.17.08,1.79.11,1.25.06,2.51.1,3.77.12a131.47,131.47,0,0,0,15.21-.66c0,1.92,0,3.93,1,5.6l1.81-.37c1-.22,2.21-.5,3-.69,3.75,1.47,5.77,3.75,6.52,6.44a12.58,12.58,0,0,1-1,8.42C595.39,432.73,594.6,434,593.66,435.32Z"/><path class="a88fb933-9b65-40c3-b7b7-918577d15774" d="M711.7,440.78c-.86.3-1.71.59-2.54.82s-1.66.52-2.46.73a168.69,168.69,0,0,1-21.6,4.78c-3.58.57-7.2,1-10.88,1.32a110,110,0,0,1-11.31.47,79.56,79.56,0,0,1-12.1-1,53.93,53.93,0,0,1-6.54-1.5,35.5,35.5,0,0,1-3.57-1.23l-1.87-.76c-.62-.28-1.21-.6-1.82-.9a32.24,32.24,0,0,1-6.69-4.55c-1-.94-1.9-1.94-2.82-2.95l-1.28-1.55-.9-1.16a72.24,72.24,0,0,1-6.82-10.61c-1.36-2.77-2.52-5.56-3.54-8.25l-.76-2c-.27-.75-.53-1.5-.8-2.24-.52-1.54-1-3.08-1.39-4.62a99.32,99.32,0,0,1-2.85-18.12c-.22-2.93-.36-5.75-.45-8.58s-.12-5.74,0-8.66A79.28,79.28,0,0,1,611,352.5a85.74,85.74,0,0,0-3,20.38c-.13,3.3-.12,6.52-.06,9.71s.22,6.53.55,9.93A83.57,83.57,0,0,0,610.07,403c.39,1.78.9,3.58,1.45,5.38.31.9.58,1.8.93,2.7l.5,1.35.47,1.17a85.63,85.63,0,0,0,4.54,9.66,79,79,0,0,0,6,9.14l1.56,2,.42.54.57.69c.4.45.75.94,1.19,1.35.82.86,1.62,1.77,2.52,2.55a33.7,33.7,0,0,0,2.83,2.22,37.08,37.08,0,0,0,6.29,3.49l1.67.69.85.34.78.26c1,.33,2,.7,3,.95A67.2,67.2,0,0,0,657,449.58a101.71,101.71,0,0,0,10.6.56,156.37,156.37,0,0,0,20.13-1.3c3.29-.41,6.57-.92,9.87-1.55s6.61-1.34,10-2.28a38.54,38.54,0,0,1-17.73,9.52,139,139,0,0,1-27.73,2.25A82.88,82.88,0,0,1,646.71,455l-2.11-.5c-.7-.17-1.4-.35-2.15-.59l-2.25-.7c-.37-.11-.79-.26-1.22-.43l-1.27-.5a45.24,45.24,0,0,1-9.55-5.13l2.13-3c-1-.66-1.92-1.35-2.85-2.06s-1.74-1.58-2.58-2.4a16.37,16.37,0,0,1-1.24-1.26l-1.09-1.19c-.52-.57-1-1.13-1.54-1.74a67.8,67.8,0,0,1-10.91-17c-.34-.73-.64-1.43-1-2.14l-.88-2.13c-.67-1.68-1.28-3.37-1.78-5.05A80.05,80.05,0,0,1,603.26,390a167.83,167.83,0,0,1,.07-17.38,102.18,102.18,0,0,1,2.6-18.56,72.13,72.13,0,0,1,3.08-9.71c.64-1.63,1.35-3.21,2.17-4.86s1.75-3.28,2.73-4.86a54.74,54.74,0,0,1,15.8-16.34A46.52,46.52,0,0,1,641,312.74a43.07,43.07,0,0,1,13.45-2.08c-2.61-.6-1-1.3-.42-1.87l.55,0-.55,0c.27-.25.34-.48-.28-.68a13.3,13.3,0,0,0-4.39-.24,13.3,13.3,0,0,1,4.39.24c.62.2.55.43.28.68a43.32,43.32,0,0,0-14,1.69,46.45,46.45,0,0,0-11.93,5.44,54.51,54.51,0,0,0-16.68,16.8,65.32,65.32,0,0,0-8.21,20.13,100.79,100.79,0,0,0-2.35,18.89c-.11,3-.12,5.88-.08,8.69s.11,5.64.29,8.63a94.92,94.92,0,0,0,3,19.18c.47,1.7,1,3.41,1.62,5.13l.48,1.28.45,1.16.85,2.13a86.73,86.73,0,0,0,4.33,9.09,83.24,83.24,0,0,0,5.67,8.77l1.44,1.94,1.47,1.89a33.31,33.31,0,0,0,2.49,2.81c.87.9,1.71,1.85,2.66,2.66-1.46-1.29-2.78-2.73-4.11-4.15l-1-1.11-.67-.82-1.13-1.43c-1.52-1.94-3.1-4.07-4.63-6.39a77,77,0,0,1-4.2-7.2c-1.24-2.42-2.29-4.76-3.23-7l-.68-1.66-.79-2c-.49-1.35-1-2.71-1.36-4a80.45,80.45,0,0,1-2-7.93,111.49,111.49,0,0,1-1.78-14.75c-.14-2.33-.23-4.54-.28-6.78s-.09-4.54,0-6.91a110.3,110.3,0,0,1,1.15-14.86,75.5,75.5,0,0,1,4.23-16c.51-1.36,1.13-2.69,1.75-4.05s1.38-2.82,2.19-4.15A57,57,0,0,1,621,319.33a54.09,54.09,0,0,1,8.1-5.76,46,46,0,0,1,20.71-6.17,43.32,43.32,0,0,1,11.19.87,50.21,50.21,0,0,1,10.14,3.32,55.63,55.63,0,0,1,15.93,11.14,58.18,58.18,0,0,1,6.09,7.06,68.87,68.87,0,0,1,4.73,7.34c.67,1.22,1.34,2.45,1.93,3.67l.52,1.05.62,1.34c.4.9.8,1.8,1.17,2.71,1.54,3.63,2.79,7.34,4,11.05.6,1.86,1.14,3.71,1.68,5.57l.77,2.79c.25.93.38,1.83.58,2.75a32.78,32.78,0,0,1,.32,10.14,24.21,24.21,0,0,1-3,8.93,20.83,20.83,0,0,1-2.84,3.89c-.47.51-.93,1-1.41,1.4s-1.12.88-1.68,1.32l-1.75,1.35L695.32,397l-.88.47a9.24,9.24,0,0,1-1.05.34l-2.19.64c-2.8,1-6.16,1.32-9.32,1.88-2.87.24-5.64.52-8.35.84l-2,.25-1,.13-.58,0-2.24.12c-1.51.1-3,.22-4.58.36l-4.72.44c-6.38.6-13.15,1.42-21.25,1.07,1.06-1.11.84-2.57.5-4.08a10.47,10.47,0,0,1-.51-4.38c.29-1.34,1.34-2.36,3.76-3.06s6.23-1.14,12.19-1.67c-.15-.91-.45-2.74-.61-3.65-5.9-.17-11-1.53-14.21-3.64a12.41,12.41,0,0,1-1.16-.79c-.34-.29-.67-.58-1-.87a8.62,8.62,0,0,1-1.46-1.77,7.65,7.65,0,0,1-1.08-3.51,4.79,4.79,0,0,1,.39-3.18,8.91,8.91,0,0,1,.95-1.29,14.31,14.31,0,0,1,.88-1.27,9.28,9.28,0,0,1,1-1.09,9.71,9.71,0,0,1,1.33-1,12.22,12.22,0,0,1,1.81-.91c.33-.13.77-.32,1.17-.46s.82-.26,1.31-.42c3.9-1.1,8.85-2.42,14.7-4l2.23-.58,1.15-.3.59-.15.07,0h0a1.63,1.63,0,0,1,.23-.11,1.76,1.76,0,0,1,.55-.09,1.25,1.25,0,0,0,.43,0,.35.35,0,0,0,.19-.3,2.6,2.6,0,0,0-.06-.81,2.08,2.08,0,0,0-.15-.44l-.43-.83c-.34-.64-.68-1.27-1-1.84a19.61,19.61,0,0,0-2.14-2.92,13.37,13.37,0,0,0-2.26-2,11.92,11.92,0,0,0-2.76-1.59,3.79,3.79,0,0,0-1.71-.32c-.34,0-.33.13-.5.22s-.5.24-1,.57a15.26,15.26,0,0,0-4.15,3.95c-.33.45-.65.92-.94,1.38s-.68,1.2-1,1.86a37.73,37.73,0,0,0-1.88,4.67c-1.67,4.84-2.33,11.46-2.33,18.84,0,7.17.58,13.31,2.13,17.89.13.47.52,1.46.8,2.19s.6,1.52.9,2.22c.6,1.41,1.17,2.64,1.8,3.82a40.48,40.48,0,0,0,2.2,3.63c.43.65.9,1.31,1.39,2l.39.52c.1.15.31.42.29.42l.13.29a2.38,2.38,0,0,0,.35.54c.1.22.28.33.41.54a2.91,2.91,0,0,0,.52.47,3,3,0,0,1,.28.24c.13.09.34.17.56.29a31.59,31.59,0,0,0,7.56,2.21c4.38.64,11.1-.35,17.12-1.72s11.33-2.94,14-2.4c3.7.14,4.55,1.86,4.83,4.13a109.5,109.5,0,0,1-25,5.52,71.94,71.94,0,0,1-12.31.26A43.27,43.27,0,0,1,653,424a23.44,23.44,0,0,1-4.38-1.36,10.06,10.06,0,0,1-3.49-2.8l-1.82-2.48c-.74-1-1.42-2-2-3a42.54,42.54,0,0,1-3.17-6c-.47-1.07-.92-2.18-1.35-3.35l-.65-1.79c-.12-.32-.19-.56-.27-.81l-.24-.76a53,53,0,0,1-1.83-13.6,123.68,123.68,0,0,1,.68-15.38,106.5,106.5,0,0,0-1.07,15.19,50.34,50.34,0,0,0,1.7,13.71c.15.53.32,1,.49,1.55l.66,1.8c.44,1.19.91,2.31,1.38,3.4a42.37,42.37,0,0,0,3.29,6.08c.64,1,1.35,2,2.12,3,.38.51.78,1,1.18,1.54l.77,1a10,10,0,0,0,3.67,2.72,22.1,22.1,0,0,0,4.33,1.53,45.37,45.37,0,0,0,5.56.93,72.62,72.62,0,0,0,12.29.18A112.54,112.54,0,0,0,696,420.8c.09,2,.14,4.05,1.8,5.4,0,0,1.31-.48,2.92-1.13s3.48-1.52,4.67-2.17a45.9,45.9,0,0,1,7.13-.1c1.89.15,3.45.49,4.47,1.45s1.49,2.47,1.2,4.54a12.32,12.32,0,0,1-.75,3.07,21.07,21.07,0,0,1-1.4,3.11A64,64,0,0,1,711.7,440.78Z"/><path class="a88fb933-9b65-40c3-b7b7-918577d15774" d="M230.68,468.39l.18-1.73a62.4,62.4,0,0,0-.05-7.5c-.12-2.44-.33-4.85-.6-7.29s-.46-4.88-.65-7.39-.22-5.05-.13-7.69c.86-7.44-1.07-15.49-1.83-22.65.06,8.57.87,17.32,1.27,26.12a150.88,150.88,0,0,1-.8,27c-2.55-1.29-4.65-3-5.16-5.48-.18-3-.28-5.92-.5-8.83s-.36-5.7-.57-8.5l3.64-.55c-2.55-7.6-2.34-15.27-2.3-22.84s0-15.05-3-22.53c-.44.59-1.22.33-1.83.28v0c-.53-.06-.93,0-.84,1-.09-1,.31-1.06.84-1,2.33,15.1,3,29.33,3.47,45-.91-12.1-2.27-23.67-3.7-35.31s-2.87-23.29-3.77-35.36L214,369a21.77,21.77,0,0,0,2.89-12.59c4.69.73,13.67-3.9,12.34,4.36l3.7-.24c4.11-8.45,16.89-12.12,21.07-4.37,4.25,8.72,1.44,21,4.25,31.78,1.61,7.89,3.3,15.71,2.32,23.8-1.57,11.18.84,22.81-1.06,33.94-.15,2,.8,4.53,1.45,6.86s1.12,4.35-.05,5.58c-1,1.62-2.92,2.09-5.12,2.37-1-6.29-2.06-12.68-2.64-19.1a182.07,182.07,0,0,1,.87-24.09,83.58,83.58,0,0,0-.87,24.09c.15,6.47.5,12.9.86,19.29a17.41,17.41,0,0,0-5.58,1.16l.7,2.92c-3.57,5-10,5.82-15.06,4.76C233.06,469.21,231.88,468.84,230.68,468.39Z"/><path class="a88fb933-9b65-40c3-b7b7-918577d15774" d="M250.54,288.14a16.21,16.21,0,0,1-2.36,4.79,13.84,13.84,0,0,1-2.07,2.29,9.57,9.57,0,0,1-1.53,1.2l-.63.26-1.28.57-2.75,1.28a31.81,31.81,0,0,1-7.29,2.53,20.56,20.56,0,0,1-4.92.38c-.45,0-.85-.06-1.33-.11s-1.14-.17-1.71-.28a16.35,16.35,0,0,1-11.47-9.19,20.37,20.37,0,0,1-1.29-4.83,16.18,16.18,0,0,1,.31-5.88,14.48,14.48,0,0,1,2.49-5.31,14.79,14.79,0,0,1,3.92-3.7,16.9,16.9,0,0,1,7.52-2.61,17.26,17.26,0,0,1,3.21,0c.52,0,1,.11,1.55.2a14,14,0,0,1,1.47.34l-.37-.15-.45-.14c-.29-.09-.6-.19-.89-.26a16.13,16.13,0,0,0-1.81-.37A17.29,17.29,0,0,0,225,269a16.32,16.32,0,0,0-4.47,1,15.42,15.42,0,0,0-5,3.11,16.17,16.17,0,0,0-2.27,2.64,15.6,15.6,0,0,0-2.54,10.57,17.16,17.16,0,0,0,1.91,6.05,19.12,19.12,0,0,0,3.18,4.3,18.87,18.87,0,0,0,4.13,3.17,17.91,17.91,0,0,0,5.46,2,26.21,26.21,0,0,0,2.65.39c.79.06,1.61.1,2.37.08a27,27,0,0,0,4.39-.44,51.26,51.26,0,0,0,6.94-1.87l2.82-.94,1.32-.43c.22-.07.41-.12.66-.21a11.44,11.44,0,0,0,1.61-1.21c-.27.7-.5,1.31-.67,1.82a3.34,3.34,0,0,0-.1.36l0,.23,0,.46a6.42,6.42,0,0,1-.12,1.76,4.6,4.6,0,0,1-1.88,2.92,38.56,38.56,0,0,1-11.26,4,29.07,29.07,0,0,1-8,.3l-.61-.07-.7-.09c-.46-.07-.93-.15-1.39-.24a22.46,22.46,0,0,1-2.57-.66,24.76,24.76,0,0,1-4.52-1.91c.41-.84,1.23-2.47,1.64-3.29a19.47,19.47,0,0,1-8.88-7,21.37,21.37,0,0,1-1.63-2.78,20,20,0,0,1-1.27-3.37,19.84,19.84,0,0,1,13.4-24.46,21.74,21.74,0,0,1,4.84-.83,24.43,24.43,0,0,1,8.1,1l.49.15.4.14.8.29c.53.19,1.06.41,1.59.64a30.83,30.83,0,0,1,3.23,1.65,26.4,26.4,0,0,1,6.74,5.55c.55.64,1.08,1.34,1.59,2.07.25.37.5.75.74,1.14s.52.93.76,1.4a25.25,25.25,0,0,1,2.06,5.88c.4-1.21,1.21-.62,1.83-.39l0,.25,0-.25c.52.19,1,0,.64-2.28.36,2.31-.12,2.47-.64,2.28a24.05,24.05,0,0,0-1.68-6.51c-.22-.53-.49-1.12-.73-1.58s-.47-.89-.72-1.32a24.38,24.38,0,0,0-1.62-2.39,25.29,25.29,0,0,0-7.33-6.43,27,27,0,0,0-3.62-1.79,30.29,30.29,0,0,0-3.63-1.21,26.28,26.28,0,0,0-8.89-.74,24.1,24.1,0,0,0-5.14,1,22.82,22.82,0,0,0-6,2.85,22.4,22.4,0,0,0-5.88,5.73,21.82,21.82,0,0,0-2.16,3.81,22.87,22.87,0,0,0-2,9.15,20.25,20.25,0,0,0,.11,2.24c.07.73.17,1.51.3,2.17a23.59,23.59,0,0,0,1.08,3.86,24.4,24.4,0,0,0,1.51,3.33,24.68,24.68,0,0,0,1.81,2.85,26.79,26.79,0,0,0,2,2.44,25.67,25.67,0,0,0,4.83,4,26.18,26.18,0,0,1-7.26-6.64,24.76,24.76,0,0,1-4.62-10.86,23.64,23.64,0,0,1,0-7.37,21.75,21.75,0,0,1,.92-3.72,22.41,22.41,0,0,1,1.44-3.4,23.48,23.48,0,0,1,4.15-5.66,25.21,25.21,0,0,1,2.5-2.17,24.57,24.57,0,0,1,2.51-1.65,25,25,0,0,1,9-3.05,26.61,26.61,0,0,1,7.46,0c.61.09,1.2.18,1.82.31l.91.21.78.2c1,.27,2,.6,3,1a27.81,27.81,0,0,1,6.1,3.33,25.82,25.82,0,0,1,6,6.07c.45.64.89,1.33,1.29,2,.2.36.4.72.58,1.09s.41.85.6,1.28a24.58,24.58,0,0,1,1.16,16.13,23.69,23.69,0,0,1-2.29,5.61,24,24,0,0,1-4.24,5.48,23.76,23.76,0,0,1-20.61,6.15,24.55,24.55,0,0,1-3-.76,25.87,25.87,0,0,1-2.69-1,25.56,25.56,0,0,1-13.52-14.61c-.22-.58-.47-1.41-.7-2.29l-.17-.68-.12-.57-.19-1.08a26.17,26.17,0,0,1-.33-3.78,43.51,43.51,0,0,1,4.12-8.34c1.25-2,2.24-3.57,3-5,1.88,1.4,5.22,2.52,7.53,3.85a6.91,6.91,0,0,1,2.5,2c.42.7.34,1.37-.52,2.36l3.49,1.24c2.88-1.05,7.24.4,11,2.33A30.61,30.61,0,0,1,239.5,285c.86.55,1.67,1.1,2.43,1.6s1.43,1,2,1.39c.3.2.6.36.85.51l.1.06.05,0-.12-.06-.67-.34-1.4-.66a46.51,46.51,0,0,0-5-2,20.91,20.91,0,0,0-3.35-.86,7.92,7.92,0,0,0-1.8-.1l-.19,0h-.08c1.7-.38-2.33.5-1.91.41h.12a4,4,0,0,0,.52-.2,3.19,3.19,0,0,0,.38-.24,2.94,2.94,0,0,0-.53.94,2.29,2.29,0,0,0-.14,1.07s.05,0-.15-.17a2.12,2.12,0,0,0-1.1-.47.82.82,0,0,0,.27-.05l.15-.05.08,0,0,0h0l-.83.39-.09.05-.12.07a5.28,5.28,0,0,0-1.46,1.66,5.8,5.8,0,0,0-.48,1c-.05.13-.08.22-.1.29v.05h0c-.5,1.92.67-2.62.55-2.15v0a2.1,2.1,0,0,0-.06.24c-.07.39,0,.23,0-.3a6,6,0,0,0-.49-2,2.76,2.76,0,0,0-.7-1l0,0h0l-.18-.08h0l-.06,0c-.06,0,0,0,0,0h.14a2.75,2.75,0,0,0,1.25-.46,3.53,3.53,0,0,0,.47-.39,2.29,2.29,0,0,0-.31.83l0,.13v.12h0c0,.41.23-3.48.12-1.84h0a.2.2,0,0,0,0-.11.79.79,0,0,0,0-.22,3.11,3.11,0,0,0,0-.32,14.2,14.2,0,0,0-2.13-4.82,38,38,0,0,0-2.58-3.62l-.24-.31.06.07.16.17.58.55.83.76.22.21.06.06,5.49,5.94.25.27.68.72.05.05-.6-.63-.36-.39-2.8-3h0l-.06,0-.13.07-.23.13-.37.17a.6.6,0,0,1-.23,0h0l.07.13c.18.37.33.63.48,1a9.69,9.69,0,0,1,.86,2.62l0,.32v.17l-.12,1.85v-.09a.77.77,0,0,1,0-.15,2.49,2.49,0,0,1,.08-.32c.16-.54.43-.7.07-.36a3,3,0,0,1-.77.49,2.38,2.38,0,0,1-.81.2h-.12s0,0,.06,0l0,0h0l.19.09h0c-.14-.07,0,0,.18.2a5.32,5.32,0,0,1,1,2.54,5.45,5.45,0,0,0-.93-2.52c-.21-.24-.32-.28-.21-.22-.34-.17-.32-.1-.16-.11a2.42,2.42,0,0,0,.8-.19,3.49,3.49,0,0,0,.79-.49c.18-.16.21-.22.18-.17a2.16,2.16,0,0,0-.24.52,2.49,2.49,0,0,0-.08.32.77.77,0,0,0,0,.15v.08l.12-1.84v-.17l0-.31a9.55,9.55,0,0,0-.84-2.58l-.19-.4a.25.25,0,0,0,0,.07.5.5,0,0,0,.14.1,1,1,0,0,0,.43.11,2.39,2.39,0,0,0,.59,0l.34-.05.18,0,.09,0h.08l1.53,1.67.18.19-.2-.22,0-.06h0l-1.14-1.23h0v0l0,0,.12.14.47.54,1,1.08a25.19,25.19,0,0,0,2,2l.06-.05,0,0h0l.07.06.15.12a3.27,3.27,0,0,0,.9.55.7.7,0,0,0,.19,0h0l.32-.06h0a.33.33,0,0,0-.11.09.35.35,0,0,0-.06.09v0a1.13,1.13,0,0,0,0-.2,1.51,1.51,0,0,0-1-1.69,2.38,2.38,0,0,0-1.44,0,7,7,0,0,0-1.35.59,5.14,5.14,0,0,1-2.18.74,2.18,2.18,0,0,1-1.9-1.54,6.46,6.46,0,0,1,1.09-5.73,12.81,12.81,0,0,1,12.62-5.08l.94.27c.33.11.67.25,1,.39s.67.3,1,.49.74.43,1.1.68a13.93,13.93,0,0,1,4.33,4.76,16,16,0,0,1,.84,1.77c.12.31.24.63.34.95l.15.48.1.28a14.43,14.43,0,0,1,.6,2.24A17.74,17.74,0,0,1,250.54,288.14Z"/><path class="a88fb933-9b65-40c3-b7b7-918577d15774" d="M791.19,426.5a15.66,15.66,0,0,1-2.36,4.78,14,14,0,0,1-2.07,2.3,10,10,0,0,1-1.52,1.19l-.63.26-1.29.57-2.75,1.28a32.09,32.09,0,0,1-7.29,2.54,21.06,21.06,0,0,1-4.92.37c-.44,0-.85-.06-1.32-.11s-1.15-.16-1.71-.28a15.87,15.87,0,0,1-3.08-1,16.25,16.25,0,0,1-4.91-3.26,16,16,0,0,1-3.48-4.94,19.9,19.9,0,0,1-1.29-4.83,15.9,15.9,0,0,1,.31-5.87,14.8,14.8,0,0,1,1-2.87,15.64,15.64,0,0,1,1.48-2.45,15,15,0,0,1,3.92-3.7,16.74,16.74,0,0,1,7.52-2.6,17.19,17.19,0,0,1,3.2,0c.52,0,1,.12,1.55.2s1.08.22,1.47.34l-.37-.14-.44-.15c-.3-.09-.6-.19-.9-.26-.59-.15-1.19-.27-1.8-.37a17.33,17.33,0,0,0-3.84-.13,15.92,15.92,0,0,0-4.47,1,15.46,15.46,0,0,0-5,3.12,15.18,15.18,0,0,0-2.27,2.63,14.84,14.84,0,0,0-1.65,3.2,15.59,15.59,0,0,0-.9,7.38,17,17,0,0,0,1.92,6,18.39,18.39,0,0,0,3.18,4.3,18.64,18.64,0,0,0,4.13,3.17,18.08,18.08,0,0,0,5.46,2c1.16.22,1.81.29,2.65.38s1.61.1,2.37.08a27,27,0,0,0,4.39-.44,51.26,51.26,0,0,0,6.94-1.87l2.82-.94,1.31-.42c.22-.08.42-.12.67-.22a12.06,12.06,0,0,0,1.61-1.21c-.27.7-.5,1.31-.67,1.83,0,.11-.09.25-.11.36l0,.23,0,.45a6.05,6.05,0,0,1-.11,1.76,4.62,4.62,0,0,1-1.88,2.92,38.53,38.53,0,0,1-11.27,4,29,29,0,0,1-8,.3l-.62-.06-.69-.1c-.47-.06-.93-.14-1.39-.23-.92-.18-1.73-.41-2.58-.66a25.38,25.38,0,0,1-4.52-1.92l1.65-3.29a19.4,19.4,0,0,1-8.88-7,21.41,21.41,0,0,1-1.64-2.78,20,20,0,0,1-1.26-3.37,19.93,19.93,0,0,1,7.73-21.73,20.4,20.4,0,0,1,5.67-2.72,21.09,21.09,0,0,1,4.84-.83,24.17,24.17,0,0,1,8.1,1l.48.14.41.14.8.29c.53.2,1.06.42,1.59.65a30.73,30.73,0,0,1,3.23,1.64,26.43,26.43,0,0,1,6.73,5.56,24.42,24.42,0,0,1,1.6,2.06c.25.37.5.75.74,1.14s.52.93.76,1.41a25.18,25.18,0,0,1,2.06,5.87c.39-1.2,1.2-.61,1.82-.39l0,.25,0-.25c.52.2,1,0,.65-2.27.36,2.3-.13,2.47-.65,2.27a23.66,23.66,0,0,0-1.67-6.51c-.23-.53-.49-1.12-.73-1.58s-.47-.88-.72-1.31a26.29,26.29,0,0,0-1.62-2.39,25.47,25.47,0,0,0-7.33-6.44,27.56,27.56,0,0,0-3.62-1.79,28.21,28.21,0,0,0-3.64-1.2,26.5,26.5,0,0,0-8.88-.75,24.3,24.3,0,0,0-5.15,1,22.92,22.92,0,0,0-6,2.85,22.41,22.41,0,0,0-9.5,14,22.64,22.64,0,0,0-.5,4.68c0,.8,0,1.5.1,2.25s.17,1.5.31,2.16a25.08,25.08,0,0,0,1.07,3.87,23.77,23.77,0,0,0,1.52,3.33,25.9,25.9,0,0,0,1.8,2.84,27.3,27.3,0,0,0,2,2.45,26,26,0,0,0,4.83,4,25.88,25.88,0,0,1-7.26-6.64A24.64,24.64,0,0,1,744,426.26a23.34,23.34,0,0,1,0-7.37,23,23,0,0,1,.91-3.72,22.42,22.42,0,0,1,1.45-3.4,23.15,23.15,0,0,1,4.15-5.66,25.11,25.11,0,0,1,2.49-2.17,27.82,27.82,0,0,1,2.52-1.65,25.17,25.17,0,0,1,9-3.05,27.07,27.07,0,0,1,7.47,0c.6.09,1.19.18,1.81.32l.92.2.78.2a29.7,29.7,0,0,1,3,1,27.69,27.69,0,0,1,6.09,3.32,25.85,25.85,0,0,1,6,6.07q.68,1,1.29,2c.2.36.39.72.58,1.09s.41.86.6,1.29a24.32,24.32,0,0,1,1.61,5.37,24.49,24.49,0,0,1-2.74,16.37,23.94,23.94,0,0,1-4.25,5.47A23.67,23.67,0,0,1,774,448.35a24.3,24.3,0,0,1-7-.23,25.81,25.81,0,0,1-3-.75,28.57,28.57,0,0,1-2.7-1,25.59,25.59,0,0,1-13.52-14.6c-.21-.59-.47-1.42-.7-2.3,0-.22-.11-.45-.16-.68l-.12-.56c-.07-.36-.13-.72-.2-1.09a27.56,27.56,0,0,1-.33-3.78,43.91,43.91,0,0,1,4.13-8.33c1.25-2,2.24-3.57,3-5,1.88,1.4,5.22,2.51,7.53,3.84a7.13,7.13,0,0,1,2.5,2c.42.7.33,1.37-.53,2.36l3.49,1.25c2.89-1.06,7.25.39,11,2.33a28.11,28.11,0,0,1,2.77,1.51c.87.55,1.68,1.1,2.44,1.6s1.43,1,2,1.39c.3.2.59.36.85.52l.1,0,0,0-.12-.06-.67-.33-1.41-.67a47.8,47.8,0,0,0-5-2,22,22,0,0,0-3.34-.86,7.22,7.22,0,0,0-1.8-.09l-.19,0-.07,0h0l-1.91.42h0l.07,0a3,3,0,0,0,.52-.2,3.19,3.19,0,0,0,.38-.24,3.12,3.12,0,0,0-.52.94,2.3,2.3,0,0,0-.14,1.07s0,0-.15-.17a2.21,2.21,0,0,0-1.1-.47s.08,0,.27-.05l.15-.05.08,0,0,0h0l-.84.4-.08,0a.36.36,0,0,0-.12.08,5.12,5.12,0,0,0-1.47,1.65,7.84,7.84,0,0,0-.48,1c0,.13-.08.22-.1.29v0h0c-.5,1.93.67-2.62.55-2.15v0a2,2,0,0,0-.05.24c-.08.4,0,.24,0-.29a6.27,6.27,0,0,0-.49-2,2.6,2.6,0,0,0-.71-1s0,0,0,0h0l-.18-.08h0l0,0-.07,0c-.06,0,0,0,0,0h.14a2.83,2.83,0,0,0,1.25-.46,1.94,1.94,0,0,0,.46-.39,2.5,2.5,0,0,0-.31.83.51.51,0,0,0,0,.13v.13h0c0,.4.23-3.49.12-1.84h0v-.1a1.48,1.48,0,0,0,0-.22,3.26,3.26,0,0,0-.05-.33,14.09,14.09,0,0,0-2.12-4.82,40,40,0,0,0-2.59-3.62l-.24-.3.06.06c.05,0,.1.11.17.17l.58.56c.25.22.53.47.82.75l.23.21.06.06,5.48,5.94.26.28.68.71c.51.52.38.4,0,0l-.6-.63-.36-.38L768,416h0l-.07,0-.12.08-.23.12a2.84,2.84,0,0,1-.38.17c-.1,0-.18.06-.22,0h0l.07.13c.19.37.34.62.48.95a9.67,9.67,0,0,1,.87,2.62l0,.32v.17l-.12,1.85v-.08l0-.16a1.67,1.67,0,0,1,.08-.32c.16-.54.43-.7.07-.36a3.43,3.43,0,0,1-.77.49,2.16,2.16,0,0,1-.82.2h-.12l.06,0h.05l.18.08h0c-.14-.07,0,0,.18.2a5.26,5.26,0,0,1,.94,2.54,5.24,5.24,0,0,0-.93-2.52c-.2-.24-.31-.28-.2-.22-.34-.17-.32-.1-.16-.11a2.1,2.1,0,0,0,.79-.19,3.37,3.37,0,0,0,.8-.48c.18-.17.21-.23.17-.18a1.89,1.89,0,0,0-.23.52,1.67,1.67,0,0,0-.08.32l0,.15v.09l.12-1.85v-.17l0-.31a9.78,9.78,0,0,0-.84-2.57l-.19-.41a.16.16,0,0,0,0,.07.53.53,0,0,0,.14.11,1,1,0,0,0,.43.11,4.09,4.09,0,0,0,.59,0l.34-.06.18,0,.09,0h.07l1.54,1.66.18.19-.21-.22-.05-.05h0l-1.14-1.23h0l0,0,.12.13.46.54,1,1.09c.64.71,1.29,1.41,2,2l.05-.05,0,0h0l.07.06.15.13a3.28,3.28,0,0,0,.9.54.48.48,0,0,0,.19.05h0l.33-.06h0a.37.37,0,0,0-.12.1l0,.08v0a1,1,0,0,0,0-.19,1.52,1.52,0,0,0-1-1.7,2.49,2.49,0,0,0-1.45,0,7.85,7.85,0,0,0-1.34.59,5,5,0,0,1-2.19.74,2.16,2.16,0,0,1-1.89-1.54c-.49-1-.48-3.42,1.08-5.73a12.8,12.8,0,0,1,12.63-5.07c.31.08.62.16.93.26l1,.39c.34.15.66.3,1,.49s.75.44,1.11.68a14,14,0,0,1,4.33,4.77,14.44,14.44,0,0,1,.83,1.77c.13.31.24.62.35.94l.14.49.1.27a16.41,16.41,0,0,1,.61,2.24A17.37,17.37,0,0,1,791.19,426.5Z"/></svg>