<svg id="b64c28ca-aa59-4657-a31b-ce30d3dd7d36" data-name="Layer 1" xmlns="http://www.w3.org/2000/svg" viewBox="0 0 1920 1080"><defs><style>.b364d211-a1be-4b9e-851c-d9dc9a54f226{opacity:0.5;}.e465c063-0b47-49e5-8b38-87de60cd9bc3{fill:#d7cedd;}.b249a652-ce37-4d82-88e5-c61f965bd5a7{fill:#fff;}</style></defs><title>landing-background-01-01</title><g class="b364d211-a1be-4b9e-851c-d9dc9a54f226"><rect class="e465c063-0b47-49e5-8b38-87de60cd9bc3" width="1920" height="1080" rx="32.43"/></g><circle class="b249a652-ce37-4d82-88e5-c61f965bd5a7" cx="1371.63" cy="636.96" r="11.63"/><circle class="b249a652-ce37-4d82-88e5-c61f965bd5a7" cx="1418.16" cy="636.96" r="11.63"/><circle class="b249a652-ce37-4d82-88e5-c61f965bd5a7" cx="1464.68" cy="636.96" r="11.63"/><circle class="b249a652-ce37-4d82-88e5-c61f965bd5a7" cx="1511.21" cy="636.96" r="11.63"/><circle class="b249a652-ce37-4d82-88e5-c61f965bd5a7" cx="1557.74" cy="636.96" r="11.63"/><circle class="b249a652-ce37-4d82-88e5-c61f965bd5a7" cx="1604.26" cy="636.96" r="11.63"/><circle class="b249a652-ce37-4d82-88e5-c61f965bd5a7" cx="1650.79" cy="636.96" r="11.63"/><circle class="b249a652-ce37-4d82-88e5-c61f965bd5a7" cx="1697.32" cy="636.96" r="11.63"/><circle class="b249a652-ce37-4d82-88e5-c61f965bd5a7" cx="1743.84" cy="636.96" r="11.63"/><circle class="b249a652-ce37-4d82-88e5-c61f965bd5a7" cx="1790.37" cy="636.96" r="11.63"/><circle class="b249a652-ce37-4d82-88e5-c61f965bd5a7" cx="1371.63" cy="687.64" r="11.63"/><circle class="b249a652-ce37-4d82-88e5-c61f965bd5a7" cx="1418.16" cy="687.64" r="11.63"/><circle class="b249a652-ce37-4d82-88e5-c61f965bd5a7" cx="1464.68" cy="687.64" r="11.63"/><circle class="b249a652-ce37-4d82-88e5-c61f965bd5a7" cx="1511.21" cy="687.64" r="11.63"/><circle class="b249a652-ce37-4d82-88e5-c61f965bd5a7" cx="1557.74" cy="687.64" r="11.63"/><circle class="b249a652-ce37-4d82-88e5-c61f965bd5a7" cx="1604.26" cy="687.64" r="11.63"/><circle class="b249a652-ce37-4d82-88e5-c61f965bd5a7" cx="1650.79" cy="687.64" r="11.63"/><circle class="b249a652-ce37-4d82-88e5-c61f965bd5a7" cx="1697.32" cy="687.64" r="11.63"/><circle class="b249a652-ce37-4d82-88e5-c61f965bd5a7" cx="1743.84" cy="687.64" r="11.63"/><circle class="b249a652-ce37-4d82-88e5-c61f965bd5a7" cx="1790.37" cy="687.64" r="11.63"/><circle class="b249a652-ce37-4d82-88e5-c61f965bd5a7" cx="1371.63" cy="738.32" r="11.63"/><circle class="b249a652-ce37-4d82-88e5-c61f965bd5a7" cx="1418.16" cy="738.32" r="11.63"/><circle class="b249a652-ce37-4d82-88e5-c61f965bd5a7" cx="1464.68" cy="738.32" r="11.63"/><circle class="b249a652-ce37-4d82-88e5-c61f965bd5a7" cx="1511.21" cy="738.32" r="11.63"/><circle class="b249a652-ce37-4d82-88e5-c61f965bd5a7" cx="1557.74" cy="738.32" r="11.63"/><circle class="b249a652-ce37-4d82-88e5-c61f965bd5a7" cx="1604.26" cy="738.32" r="11.63"/><circle class="b249a652-ce37-4d82-88e5-c61f965bd5a7" cx="1650.79" cy="738.32" r="11.63"/><circle class="b249a652-ce37-4d82-88e5-c61f965bd5a7" cx="1697.32" cy="738.32" r="11.63"/><circle class="b249a652-ce37-4d82-88e5-c61f965bd5a7" cx="1743.84" cy="738.32" r="11.63"/><circle class="b249a652-ce37-4d82-88e5-c61f965bd5a7" cx="1790.37" cy="738.32" r="11.63"/><circle class="b249a652-ce37-4d82-88e5-c61f965bd5a7" cx="1371.63" cy="789" r="11.63"/><circle class="b249a652-ce37-4d82-88e5-c61f965bd5a7" cx="1418.16" cy="789" r="11.63"/><circle class="b249a652-ce37-4d82-88e5-c61f965bd5a7" cx="1464.68" cy="789" r="11.63"/><circle class="b249a652-ce37-4d82-88e5-c61f965bd5a7" cx="1511.21" cy="789" r="11.63"/><circle class="b249a652-ce37-4d82-88e5-c61f965bd5a7" cx="1557.74" cy="789" r="11.63"/><circle class="b249a652-ce37-4d82-88e5-c61f965bd5a7" cx="1604.26" cy="789" r="11.63"/><circle class="b249a652-ce37-4d82-88e5-c61f965bd5a7" cx="1650.79" cy="789" r="11.63"/><circle class="b249a652-ce37-4d82-88e5-c61f965bd5a7" cx="1697.32" cy="789" r="11.63"/><circle class="b249a652-ce37-4d82-88e5-c61f965bd5a7" cx="1743.84" cy="789" r="11.63"/><circle class="b249a652-ce37-4d82-88e5-c61f965bd5a7" cx="1790.37" cy="789" r="11.63"/><circle class="b249a652-ce37-4d82-88e5-c61f965bd5a7" cx="1371.63" cy="839.68" r="11.63"/><circle class="b249a652-ce37-4d82-88e5-c61f965bd5a7" cx="1418.16" cy="839.68" r="11.63"/><circle class="b249a652-ce37-4d82-88e5-c61f965bd5a7" cx="1464.68" cy="839.68" r="11.63"/><circle class="b249a652-ce37-4d82-88e5-c61f965bd5a7" cx="1511.21" cy="839.68" r="11.63"/><circle class="b249a652-ce37-4d82-88e5-c61f965bd5a7" cx="1557.74" cy="839.68" r="11.63"/><circle class="b249a652-ce37-4d82-88e5-c61f965bd5a7" cx="1604.26" cy="839.68" r="11.63"/><circle class="b249a652-ce37-4d82-88e5-c61f965bd5a7" cx="1650.79" cy="839.68" r="11.63"/><circle class="b249a652-ce37-4d82-88e5-c61f965bd5a7" cx="1697.32" cy="839.68" r="11.63"/><circle class="b249a652-ce37-4d82-88e5-c61f965bd5a7" cx="1743.84" cy="839.68" r="11.63"/><circle class="b249a652-ce37-4d82-88e5-c61f965bd5a7" cx="1790.37" cy="839.68" r="11.63"/><circle class="b249a652-ce37-4d82-88e5-c61f965bd5a7" cx="1371.63" cy="890.36" r="11.63"/><circle class="b249a652-ce37-4d82-88e5-c61f965bd5a7" cx="1418.16" cy="890.36" r="11.63"/><circle class="b249a652-ce37-4d82-88e5-c61f965bd5a7" cx="1464.68" cy="890.36" r="11.63"/><circle class="b249a652-ce37-4d82-88e5-c61f965bd5a7" cx="1511.21" cy="890.36" r="11.63"/><circle class="b249a652-ce37-4d82-88e5-c61f965bd5a7" cx="1557.74" cy="890.36" r="11.63"/><circle class="b249a652-ce37-4d82-88e5-c61f965bd5a7" cx="1604.26" cy="890.36" r="11.63"/><circle class="b249a652-ce37-4d82-88e5-c61f965bd5a7" cx="1650.79" cy="890.36" r="11.63"/><circle class="b249a652-ce37-4d82-88e5-c61f965bd5a7" cx="1697.32" cy="890.36" r="11.63"/><circle class="b249a652-ce37-4d82-88e5-c61f965bd5a7" cx="1743.84" cy="890.36" r="11.63"/><circle class="b249a652-ce37-4d82-88e5-c61f965bd5a7" cx="1790.37" cy="890.36" r="11.63"/><circle class="b249a652-ce37-4d82-88e5-c61f965bd5a7" cx="1371.63" cy="941.04" r="11.63"/><circle class="b249a652-ce37-4d82-88e5-c61f965bd5a7" cx="1418.16" cy="941.04" r="11.63"/><circle class="b249a652-ce37-4d82-88e5-c61f965bd5a7" cx="1464.68" cy="941.04" r="11.63"/><circle class="b249a652-ce37-4d82-88e5-c61f965bd5a7" cx="1511.21" cy="941.04" r="11.63"/><circle class="b249a652-ce37-4d82-88e5-c61f965bd5a7" cx="1557.74" cy="941.04" r="11.63"/><circle class="b249a652-ce37-4d82-88e5-c61f965bd5a7" cx="1604.26" cy="941.04" r="11.63"/><circle class="b249a652-ce37-4d82-88e5-c61f965bd5a7" cx="1650.79" cy="941.04" r="11.63"/><circle class="b249a652-ce37-4d82-88e5-c61f965bd5a7" cx="1697.32" cy="941.04" r="11.63"/><circle class="b249a652-ce37-4d82-88e5-c61f965bd5a7" cx="1743.84" cy="941.04" r="11.63"/><circle class="b249a652-ce37-4d82-88e5-c61f965bd5a7" cx="1790.37" cy="941.04" r="11.63"/><circle class="b249a652-ce37-4d82-88e5-c61f965bd5a7" cx="150.63" cy="134.96" r="11.63"/><circle class="b249a652-ce37-4d82-88e5-c61f965bd5a7" cx="197.16" cy="134.96" r="11.63"/><circle class="b249a652-ce37-4d82-88e5-c61f965bd5a7" cx="243.68" cy="134.96" r="11.63"/><circle class="b249a652-ce37-4d82-88e5-c61f965bd5a7" cx="290.21" cy="134.96" r="11.63"/><circle class="b249a652-ce37-4d82-88e5-c61f965bd5a7" cx="336.74" cy="134.96" r="11.63"/><circle class="b249a652-ce37-4d82-88e5-c61f965bd5a7" cx="383.26" cy="134.96" r="11.63"/><circle class="b249a652-ce37-4d82-88e5-c61f965bd5a7" cx="429.79" cy="134.96" r="11.63"/><circle class="b249a652-ce37-4d82-88e5-c61f965bd5a7" cx="476.32" cy="134.96" r="11.63"/><circle class="b249a652-ce37-4d82-88e5-c61f965bd5a7" cx="522.84" cy="134.96" r="11.63"/><circle class="b249a652-ce37-4d82-88e5-c61f965bd5a7" cx="569.37" cy="134.96" r="11.63"/><circle class="b249a652-ce37-4d82-88e5-c61f965bd5a7" cx="150.63" cy="185.64" r="11.63"/><circle class="b249a652-ce37-4d82-88e5-c61f965bd5a7" cx="197.16" cy="185.64" r="11.63"/><circle class="b249a652-ce37-4d82-88e5-c61f965bd5a7" cx="243.68" cy="185.64" r="11.63"/><circle class="b249a652-ce37-4d82-88e5-c61f965bd5a7" cx="290.21" cy="185.64" r="11.63"/><circle class="b249a652-ce37-4d82-88e5-c61f965bd5a7" cx="336.74" cy="185.64" r="11.63"/><circle class="b249a652-ce37-4d82-88e5-c61f965bd5a7" cx="383.26" cy="185.64" r="11.63"/><circle class="b249a652-ce37-4d82-88e5-c61f965bd5a7" cx="429.79" cy="185.64" r="11.63"/><circle class="b249a652-ce37-4d82-88e5-c61f965bd5a7" cx="476.32" cy="185.64" r="11.63"/><circle class="b249a652-ce37-4d82-88e5-c61f965bd5a7" cx="522.84" cy="185.64" r="11.63"/><circle class="b249a652-ce37-4d82-88e5-c61f965bd5a7" cx="569.37" cy="185.64" r="11.63"/><circle class="b249a652-ce37-4d82-88e5-c61f965bd5a7" cx="150.63" cy="236.32" r="11.63"/><circle class="b249a652-ce37-4d82-88e5-c61f965bd5a7" cx="197.16" cy="236.32" r="11.63"/><circle class="b249a652-ce37-4d82-88e5-c61f965bd5a7" cx="243.68" cy="236.32" r="11.63"/><circle class="b249a652-ce37-4d82-88e5-c61f965bd5a7" cx="290.21" cy="236.32" r="11.63"/><circle class="b249a652-ce37-4d82-88e5-c61f965bd5a7" cx="336.74" cy="236.32" r="11.63"/><circle class="b249a652-ce37-4d82-88e5-c61f965bd5a7" cx="383.26" cy="236.32" r="11.63"/><circle class="b249a652-ce37-4d82-88e5-c61f965bd5a7" cx="429.79" cy="236.32" r="11.63"/><circle class="b249a652-ce37-4d82-88e5-c61f965bd5a7" cx="476.32" cy="236.32" r="11.63"/><circle class="b249a652-ce37-4d82-88e5-c61f965bd5a7" cx="522.84" cy="236.32" r="11.63"/><circle class="b249a652-ce37-4d82-88e5-c61f965bd5a7" cx="569.37" cy="236.32" r="11.63"/><circle class="b249a652-ce37-4d82-88e5-c61f965bd5a7" cx="150.63" cy="287" r="11.63"/><circle class="b249a652-ce37-4d82-88e5-c61f965bd5a7" cx="197.16" cy="287" r="11.63"/><circle class="b249a652-ce37-4d82-88e5-c61f965bd5a7" cx="243.68" cy="287" r="11.63"/><circle class="b249a652-ce37-4d82-88e5-c61f965bd5a7" cx="290.21" cy="287" r="11.63"/><circle class="b249a652-ce37-4d82-88e5-c61f965bd5a7" cx="336.74" cy="287" r="11.63"/><circle class="b249a652-ce37-4d82-88e5-c61f965bd5a7" cx="383.26" cy="287" r="11.63"/><circle class="b249a652-ce37-4d82-88e5-c61f965bd5a7" cx="429.79" cy="287" r="11.63"/><circle class="b249a652-ce37-4d82-88e5-c61f965bd5a7" cx="476.32" cy="287" r="11.63"/><circle class="b249a652-ce37-4d82-88e5-c61f965bd5a7" cx="522.84" cy="287" r="11.63"/><circle class="b249a652-ce37-4d82-88e5-c61f965bd5a7" cx="569.37" cy="287" r="11.63"/><circle class="b249a652-ce37-4d82-88e5-c61f965bd5a7" cx="150.63" cy="337.68" r="11.63"/><circle class="b249a652-ce37-4d82-88e5-c61f965bd5a7" cx="197.16" cy="337.68" r="11.63"/><circle class="b249a652-ce37-4d82-88e5-c61f965bd5a7" cx="243.68" cy="337.68" r="11.63"/><circle class="b249a652-ce37-4d82-88e5-c61f965bd5a7" cx="290.21" cy="337.68" r="11.63"/><circle class="b249a652-ce37-4d82-88e5-c61f965bd5a7" cx="336.74" cy="337.68" r="11.63"/><circle class="b249a652-ce37-4d82-88e5-c61f965bd5a7" cx="383.26" cy="337.68" r="11.63"/><circle class="b249a652-ce37-4d82-88e5-c61f965bd5a7" cx="429.79" cy="337.68" r="11.63"/><circle class="b249a652-ce37-4d82-88e5-c61f965bd5a7" cx="476.32" cy="337.68" r="11.63"/><circle class="b249a652-ce37-4d82-88e5-c61f965bd5a7" cx="522.84" cy="337.68" r="11.63"/><circle class="b249a652-ce37-4d82-88e5-c61f965bd5a7" cx="569.37" cy="337.68" r="11.63"/><circle class="b249a652-ce37-4d82-88e5-c61f965bd5a7" cx="150.63" cy="388.36" r="11.63"/><circle class="b249a652-ce37-4d82-88e5-c61f965bd5a7" cx="197.16" cy="388.36" r="11.63"/><circle class="b249a652-ce37-4d82-88e5-c61f965bd5a7" cx="243.68" cy="388.36" r="11.63"/><circle class="b249a652-ce37-4d82-88e5-c61f965bd5a7" cx="290.21" cy="388.36" r="11.63"/><circle class="b249a652-ce37-4d82-88e5-c61f965bd5a7" cx="336.74" cy="388.36" r="11.63"/><circle class="b249a652-ce37-4d82-88e5-c61f965bd5a7" cx="383.26" cy="388.36" r="11.63"/><circle class="b249a652-ce37-4d82-88e5-c61f965bd5a7" cx="429.79" cy="388.36" r="11.63"/><circle class="b249a652-ce37-4d82-88e5-c61f965bd5a7" cx="476.32" cy="388.36" r="11.63"/><circle class="b249a652-ce37-4d82-88e5-c61f965bd5a7" cx="522.84" cy="388.36" r="11.63"/><circle class="b249a652-ce37-4d82-88e5-c61f965bd5a7" cx="569.37" cy="388.36" r="11.63"/><circle class="b249a652-ce37-4d82-88e5-c61f965bd5a7" cx="150.63" cy="439.04" r="11.63"/><circle class="b249a652-ce37-4d82-88e5-c61f965bd5a7" cx="197.16" cy="439.04" r="11.63"/><circle class="b249a652-ce37-4d82-88e5-c61f965bd5a7" cx="243.68" cy="439.04" r="11.63"/><circle class="b249a652-ce37-4d82-88e5-c61f965bd5a7" cx="290.21" cy="439.04" r="11.63"/><circle class="b249a652-ce37-4d82-88e5-c61f965bd5a7" cx="336.74" cy="439.04" r="11.63"/><circle class="b249a652-ce37-4d82-88e5-c61f965bd5a7" cx="383.26" cy="439.04" r="11.63"/><circle class="b249a652-ce37-4d82-88e5-c61f965bd5a7" cx="429.79" cy="439.04" r="11.63"/><circle class="b249a652-ce37-4d82-88e5-c61f965bd5a7" cx="476.32" cy="439.04" r="11.63"/><circle class="b249a652-ce37-4d82-88e5-c61f965bd5a7" cx="522.84" cy="439.04" r="11.63"/><circle class="b249a652-ce37-4d82-88e5-c61f965bd5a7" cx="569.37" cy="439.04" r="11.63"/></svg>