<?xml version="1.0" encoding="iso-8859-1"?>
<!-- Generator: Adobe Illustrator 19.0.0, SVG Export Plug-In . SVG Version: 6.00 Build 0)  -->
<svg version="1.1" id="Capa_1" xmlns="http://www.w3.org/2000/svg" xmlns:xlink="http://www.w3.org/1999/xlink" x="0px" y="0px"
	 viewBox="0 0 48.805 48.805" style="enable-background:new 0 0 48.805 48.805;" xml:space="preserve">
<g>
	<g>
		<path d="M48.637,26.288c-0.242-0.802-0.722-1.407-1.543-1.947c-0.686-0.451-1.635-0.86-3.071-1.323
			c-1.882-0.607-2.89-1.175-3.211-1.81c-0.168-0.332-0.162-0.715,0.016-1.069c0.274-0.545,1.005-0.932,2.021-1.074
			c0.716-0.1,1.705-0.077,2.406,0.054l0.133,0.025l-0.008,1.061c-0.006,0.583-0.006,1.062-0.004,1.062
			c0.032,0.002,2.436,0.045,2.438,0.044c0.006-0.008,0.172-4.248,0.166-4.262c-0.013-0.031-1.007-0.242-1.685-0.356
			c-1.957-0.33-3.43-0.343-4.774-0.04c-1.011,0.228-1.873,0.625-2.552,1.172c-0.168,0.136-0.504,0.472-0.635,0.637
			c-0.57,0.715-0.856,1.566-0.856,2.536c0,0.88,0.2,1.639,0.594,2.232c0.68,1.027,1.858,1.724,4.203,2.479
			c1.002,0.323,1.297,0.428,1.653,0.579c0.222,0.095,0.525,0.246,0.685,0.343c0.514,0.309,0.762,0.605,0.848,1.01
			c0.033,0.154,0.037,0.511,0.004,0.625c-0.104,0.369-0.403,0.681-0.889,0.925c-0.373,0.184-0.793,0.304-1.326,0.371
			c-0.14,0.017-0.258,0.019-0.656,0.019c-0.516,0-0.672-0.008-1.127-0.069c-1.042-0.142-2.209-0.455-3.271-0.877
			c-0.082-0.035-0.151-0.062-0.155-0.062c-0.003,0-0.07,0.124-0.146,0.273c-0.301,0.582-0.76,1.366-1.135,1.928
			c-0.108,0.158-0.119,0.176-0.1,0.191c0.041,0.036,0.68,0.346,0.881,0.432c1.379,0.587,2.855,0.906,4.459,0.965
			c1.082,0.037,1.982-0.049,2.859-0.276c2.127-0.552,3.506-1.83,3.854-3.582C48.86,27.777,48.828,26.922,48.637,26.288z"/>
	</g>
</g>
<g>
	<g>
		<path d="M36.923,23.716c-0.467-1.724-1.61-3.211-3.166-4.121c-0.888-0.518-1.834-0.818-2.877-0.911
			c-0.422-0.038-1.248-0.02-1.304,0.029c-0.034,0.031-0.303,0.441-0.407,0.626c-0.054,0.093-0.152,0.282-0.22,0.418
			c-1.051,2.153-0.885,4.728,0.429,6.729c0.582,0.89,1.33,1.604,2.246,2.154c0.151,0.09,0.618,0.33,0.754,0.389l0.063,0.025
			l-0.029,0.022c-0.016,0.013-0.094,0.062-0.176,0.109c-0.453,0.271-0.879,0.423-1.397,0.505c-0.144,0.022-0.213,0.026-0.524,0.026
			c-0.388,0-0.459-0.006-0.757-0.065c-0.907-0.181-1.743-0.72-2.327-1.494c-0.461-0.611-0.744-1.316-0.845-2.109
			c-0.03-0.235-0.03-0.83,0-1.063c0.095-0.741,0.354-1.424,0.765-2.001l0.08-0.113l0.014-0.247c0.068-1.297,0.447-2.803,0.891-3.534
			c0.027-0.049,0.053-0.09,0.049-0.093c-0.004-0.004-0.275,0.094-0.443,0.16c-1.477,0.591-2.748,1.737-3.489,3.148
			c-0.451,0.858-0.697,1.702-0.785,2.7c-0.021,0.235-0.017,0.834,0.007,1.098c0.083,0.896,0.317,1.722,0.717,2.514
			c0.051,0.104,0.093,0.189,0.093,0.197c0,0.015-0.158,0.165-0.289,0.273c-0.39,0.328-0.875,0.58-1.336,0.694
			c-0.609,0.154-1.137,0.12-1.575-0.1c-0.51-0.256-0.879-0.754-1.019-1.377C19.998,27.997,20,28.145,20,24.721v-3.143h1.765h1.765
			l-0.003-1.219l-0.003-1.218l-1.762-0.004L20,19.135l-0.003-1.308l-0.003-1.308h-1.589h-1.588l-0.003,1.308l-0.003,1.308
			l-1.159,0.002l-1.16,0.004l-0.003,1.218l-0.003,1.219h1.164h1.163v3.284c0,2.049,0.004,3.359,0.012,3.484
			c0.041,0.703,0.191,1.315,0.449,1.844c0.585,1.193,1.761,1.947,3.323,2.124c1.147,0.131,2.242-0.047,3.234-0.521
			c0.612-0.298,1.18-0.714,1.596-1.17l0.138-0.154l0.028,0.022c0.019,0.013,0.043,0.034,0.056,0.05
			c0.014,0.014,0.079,0.074,0.147,0.135c1.116,0.979,2.522,1.567,4.008,1.681c0.188,0.016,0.804,0.018,0.979,0.001
			c0.888-0.067,1.707-0.288,2.479-0.661c1.834-0.885,3.188-2.527,3.687-4.474c0.142-0.555,0.197-0.976,0.207-1.576
			C37.169,24.934,37.099,24.376,36.923,23.716z M34.167,26.396c-0.021,0.109-0.054,0.244-0.068,0.301
			c-0.014,0.056-0.03,0.101-0.036,0.103c-0.007,0.002-0.076-0.021-0.154-0.047c-0.48-0.173-0.877-0.4-1.262-0.729
			c-0.136-0.113-0.41-0.396-0.521-0.539c-0.52-0.65-0.818-1.383-0.928-2.258c-0.021-0.166-0.021-0.792,0-0.956
			c0.041-0.326,0.145-0.803,0.175-0.803c0.009,0,0.069,0.02,0.138,0.042c1.115,0.387,2.002,1.258,2.451,2.408
			C34.258,24.688,34.333,25.57,34.167,26.396z"/>
	</g>
</g>
<g>
	<g>
		<path d="M15.859,30.141l-0.624-0.005l-2.413-6.8l-2.414-6.802l-3.306,0.002l-3.306,0.003v0.968v0.967l0.823,0.003
			c0.452,0.001,0.823,0.007,0.823,0.013c0,0.007-3.831,10.837-4.069,11.501L1.32,30.144H0.66H0v0.973v0.974h2.774h2.774v-0.974
			v-0.973L4.9,30.14l-0.647-0.004l0.374-1.056l0.374-1.057L8,28.022l3-0.003l0.025,0.067c0.107,0.297,0.722,2.039,0.722,2.045
			c0,0.008-0.263,0.013-0.607,0.013h-0.608l0.003,0.97l0.003,0.974h2.969h2.968l0.003-0.974l0.003-0.97L15.859,30.141z
			 M7.996,25.611c-2.037,0-2.143-0.002-2.135-0.021c0.004-0.014,0.481-1.357,1.059-2.99s1.058-2.984,1.065-3.005l0.014-0.035
			l0.025,0.071c0.013,0.039,0.495,1.398,1.07,3.018c0.576,1.622,1.046,2.952,1.046,2.955S9.176,25.611,7.996,25.611z"/>
	</g>
</g>
<g>
</g>
<g>
</g>
<g>
</g>
<g>
</g>
<g>
</g>
<g>
</g>
<g>
</g>
<g>
</g>
<g>
</g>
<g>
</g>
<g>
</g>
<g>
</g>
<g>
</g>
<g>
</g>
<g>
</g>
</svg>
