<?xml version="1.0" encoding="iso-8859-1"?>
<!-- Generator: Adobe Illustrator 19.0.0, SVG Export Plug-In . SVG Version: 6.00 Build 0)  -->
<svg version="1.1" id="Capa_1" xmlns="http://www.w3.org/2000/svg" xmlns:xlink="http://www.w3.org/1999/xlink" x="0px" y="0px"
	 viewBox="0 0 56.48 56.48" style="enable-background:new 0 0 56.48 56.48;" xml:space="preserve">
<g>
	<g>
		<path d="M55.026,9.939H1.454C0.65,9.939,0,10.59,0,11.393v33.695c0,0.803,0.65,1.454,1.454,1.454h53.572
			c0.804,0,1.454-0.651,1.454-1.454V11.393C56.48,10.591,55.83,9.939,55.026,9.939z M7.685,34.026
			c-0.081-0.154-0.137-0.26-0.188-0.364C6.394,31.341,5.294,29.021,4.19,26.7c-0.029-0.063-0.075-0.121-0.113-0.181
			c0-0.021,0-0.041,0-0.062c0.568-0.004,1.137,0,1.704-0.016c0.187-0.005,0.271,0.062,0.343,0.229
			c0.464,1.093,0.939,2.18,1.411,3.27c0.035,0.083,0.075,0.164,0.141,0.306c0.07-0.141,0.12-0.235,0.164-0.331
			c0.485-1.072,0.973-2.142,1.447-3.218c0.083-0.186,0.178-0.264,0.392-0.257c0.543,0.018,1.088,0.006,1.681,0.006
			C10.13,28.982,8.922,31.474,7.685,34.026z M13.809,34.007c-0.672,0-1.337,0-2.027,0c0-2.502,0-5.004,0-7.544
			c0.678,0,1.345,0,2.027,0C13.809,28.982,13.809,31.484,13.809,34.007z M11.567,25.745l0.002-1.008l0.837-0.568l-0.833-0.491
			l0.003-1.031l0.008-0.008l2.44,1.52C13.206,24.687,12.417,25.197,11.567,25.745z M21.812,34.005c-0.64,0-1.315,0-2.039,0
			c0-0.1,0-0.209,0-0.316c0-1.303,0.003-2.604-0.004-3.906c0-0.268-0.023-0.537-0.064-0.802c-0.099-0.644-0.439-0.993-1.02-1.081
			c-0.721-0.11-1.368,0.15-1.587,0.734c-0.152,0.404-0.229,0.858-0.242,1.293c-0.03,1.239-0.011,2.479-0.011,3.721
			c0,0.111,0,0.226,0,0.357c-0.698,0-1.376,0-2.075,0c0-2.498,0-5.005,0-7.534c0.637,0,1.279,0,1.966,0c0,0.329,0,0.635,0,0.94
			c0.034,0.027,0.066,0.053,0.101,0.079c0.006-0.044-0.005-0.098,0.017-0.13c0.916-1.347,2.769-1.348,3.846-0.787
			c0.744,0.387,1.076,1.09,1.098,1.866C21.846,30.286,21.812,32.133,21.812,34.005z M30.154,34.007c-0.665,0-1.309,0-1.98,0
			c0-0.291,0-0.574,0-0.959c-0.419,0.625-0.925,0.965-1.564,1.104c-1.654,0.355-3.133-0.361-3.759-1.93
			c-0.658-1.646-0.637-3.289,0.434-4.777c1.015-1.411,3.223-1.635,4.418-0.501c0.104,0.1,0.197,0.21,0.343,0.365
			c0-1.723,0-3.396,0-5.07c0.704,0,1.407,0,2.109,0C30.154,26.155,30.154,30.07,30.154,34.007z M33.219,34.01
			c-0.682,0-1.35,0-2.039,0c0-2.508,0-5.013,0-7.54c0.676,0,1.35,0,2.039,0C33.219,28.984,33.219,31.491,33.219,34.01z
			 M31.18,25.422l0.002-1.009l0.834-0.567l-0.832-0.491l0.002-1.032l0.009-0.007l2.44,1.52
			C32.816,24.364,32.027,24.874,31.18,25.422z M38.328,34.21c-0.916,0.065-1.798-0.041-2.594-0.539
			c-1.104-0.689-1.635-1.725-1.708-2.996c-0.083-1.438,0.247-2.743,1.437-3.683c1.514-1.197,4.185-0.97,5.348,0.435
			c0.395,0.475,0.605,1.022,0.623,1.673c-0.703,0-1.361,0-2.016,0c-0.341-1.084-1.058-1.508-2.031-1.215
			c-0.518,0.155-0.838,0.524-1.026,1.002c-0.343,0.881-0.363,1.776-0.026,2.664c0.283,0.75,0.865,1.141,1.586,1.099
			c0.787-0.046,1.309-0.478,1.497-1.284c0.048-0.206,0.122-0.264,0.324-0.26c0.575,0.013,1.153,0.004,1.733,0.004
			C41.371,32.789,40.045,34.086,38.328,34.21z M44.323,34.01c-0.681,0-1.349,0-2.04,0c0-2.506,0-5.012,0-7.548
			c0.688,0,1.357,0,2.04,0C44.323,28.984,44.323,31.489,44.323,34.01z M42.28,25.422l0.001-1.009l0.836-0.567l-0.834-0.491
			l0.004-1.032l0.008-0.007l2.44,1.52C43.916,24.364,43.129,24.874,42.28,25.422z M50.379,34.002
			c-0.051-0.197-0.104-0.41-0.166-0.656c-0.779,0.713-1.707,0.922-2.707,0.869c-0.315-0.016-0.643-0.062-0.941-0.16
			c-0.948-0.312-1.446-1.047-1.448-2.074c-0.003-1.064,0.437-1.772,1.435-2.061c0.748-0.218,1.537-0.285,2.31-0.426
			c0.262-0.048,0.524-0.105,0.78-0.181c0.306-0.089,0.512-0.296,0.514-0.622c0.002-0.35-0.062-0.707-0.422-0.871
			c-0.594-0.272-1.229-0.315-1.779,0.041c-0.271,0.175-0.41,0.554-0.656,0.906c-0.574,0-1.244,0-1.943,0
			c0.039-0.771,0.335-1.386,0.945-1.836c0.646-0.478,1.399-0.643,2.186-0.682c0.775-0.04,1.551-0.02,2.298,0.23
			c1.021,0.342,1.467,0.96,1.47,2.036c0.004,1.312-0.015,2.625,0.008,3.938c0.01,0.51,0.096,1.02,0.146,1.547
			C51.783,34.002,51.098,34.002,50.379,34.002z"/>
	</g>
</g>
<g>
	<g>
		<path d="M28.081,30.2c0,0,0.035-0.555-0.234-1.438c-0.219-0.575-0.689-0.889-1.311-0.938c-0.665-0.052-1.222,0.152-1.597,0.736
			c-0.566,0.886-0.536,2.505,0.063,3.367c0.369,0.528,0.884,0.769,1.521,0.713c0.642-0.052,1.114-0.381,1.339-0.987
			C28.148,30.88,28.081,30.2,28.081,30.2z"/>
	</g>
</g>
<g>
	<g>
		<path d="M49.534,30.583c-0.21,0.049-0.429,0.054-0.641,0.106c-0.405,0.098-0.827,0.172-1.211,0.333
			c-0.377,0.158-0.532,0.576-0.469,0.992c0.059,0.398,0.289,0.68,0.721,0.74c0.36,0.053,0.745,0.058,1.102-0.007
			c0.628-0.114,0.976-0.553,1.066-1.172c0.056-0.385,0.054-0.778,0.078-1.2C49.924,30.46,49.732,30.536,49.534,30.583z"/>
	</g>
</g>
<g>
</g>
<g>
</g>
<g>
</g>
<g>
</g>
<g>
</g>
<g>
</g>
<g>
</g>
<g>
</g>
<g>
</g>
<g>
</g>
<g>
</g>
<g>
</g>
<g>
</g>
<g>
</g>
<g>
</g>
</svg>
