<?xml version="1.0" encoding="iso-8859-1"?>
<!-- Generator: Adobe Illustrator 19.0.0, SVG Export Plug-In . SVG Version: 6.00 Build 0)  -->
<svg version="1.1" id="Capa_1" xmlns="http://www.w3.org/2000/svg" xmlns:xlink="http://www.w3.org/1999/xlink" x="0px" y="0px"
	 viewBox="0 0 49.888 49.888" style="enable-background:new 0 0 49.888 49.888;" xml:space="preserve">
<g>
	<g>
		<rect x="46.228" y="25.203" transform="matrix(0.742 -0.6704 0.6704 0.742 -5.2947 38.2247)" width="1.578" height="1.577"/>
	</g>
</g>
<g>
	<g>
		<rect x="43.614" y="26.26" transform="matrix(0.7432 -0.669 0.669 0.7432 -6.8032 36.8949)" width="2.101" height="2.102"/>
	</g>
</g>
<g>
	<g>
		<rect x="48.622" y="24.718" transform="matrix(0.7428 -0.6695 0.6695 0.7428 -4.2597 39.3987)" width="1.05" height="1.05"/>
	</g>
</g>
<g>
	<g>
		<rect x="44.147" y="20.374" transform="matrix(0.7432 -0.669 0.669 0.7432 -2.6204 35.4975)" width="1.577" height="1.577"/>
	</g>
</g>
<g>
	<g>
		<rect x="47.625" y="22.39" transform="matrix(0.742 -0.6704 0.6704 0.742 -2.9396 38.1908)" width="1.049" height="1.05"/>
	</g>
</g>
<g>
	<g>
		<polygon points="5.233,22.239 4.468,26.204 4.415,26.204 3.373,22.239 2.706,22.239 1.732,26.204 1.679,26.204 0.84,22.239 
			0,22.239 1.214,27.553 2.024,27.553 3.013,23.812 3.066,23.812 4.085,27.553 4.895,27.553 6.11,22.239 		"/>
	</g>
</g>
<g>
	<g>
		<rect x="42.504" y="23.554" transform="matrix(0.7432 -0.669 0.669 0.7432 -5.2776 35.4584)" width="2.103" height="2.102"/>
	</g>
</g>
<g>
	<g>
		<rect x="41.389" y="20.892" transform="matrix(0.7432 -0.669 0.669 0.7432 -3.7835 34.0281)" width="2.102" height="2.102"/>
	</g>
</g>
<g>
	<g>
		<rect x="45.227" y="22.731" transform="matrix(0.7423 -0.67 0.67 0.7423 -3.9025 36.8911)" width="1.575" height="1.578"/>
	</g>
</g>
<g>
	<g>
		<rect x="46.621" y="20.071" transform="matrix(0.7428 -0.6695 0.6695 0.7428 -1.6632 36.8635)" width="1.05" height="1.05"/>
	</g>
</g>
<g>
	<g>
		<path d="M34.355,23.842l-0.851,2.761h-0.045l-0.959-2.76h-0.824l1.438,3.749c-0.18,0.555-0.494,0.959-1.004,0.959v0.613
			c0.861,0,1.318-0.539,1.693-1.574l1.355-3.748H34.355z"/>
	</g>
</g>
<g>
	<g>
		<path d="M9.542,25.547c0.001-1.225-0.576-1.83-1.513-1.83c-1.124,0-1.701,0.823-1.701,1.963c0,1.185,0.518,1.964,1.776,1.964
			c0.539,0,0.989-0.15,1.326-0.347V26.73c-0.412,0.245-0.787,0.389-1.191,0.389c-0.771,0-1.139-0.396-1.139-1.297h2.442V25.547z
			 M7.115,25.319c0.082-0.748,0.435-1.101,0.892-1.101c0.405,0,0.787,0.313,0.824,1.101H7.115z"/>
	</g>
</g>
<g>
	<g>
		<rect x="47.259" y="27.569" transform="matrix(0.7429 -0.6694 0.6694 0.7429 -6.6297 39.4538)" width="1.577" height="1.578"/>
	</g>
</g>
<g>
	<g>
		<path d="M31.439,25.547c0.002-1.225-0.576-1.83-1.512-1.83c-1.125,0-1.701,0.823-1.701,1.963c0,1.185,0.517,1.964,1.775,1.964
			c0.539,0,0.987-0.15,1.325-0.347V26.73c-0.411,0.245-0.786,0.389-1.19,0.389c-0.771,0-1.14-0.396-1.14-1.297h2.443V25.547z
			 M29.011,25.319c0.084-0.748,0.437-1.101,0.894-1.101c0.403,0,0.787,0.313,0.824,1.101H29.011z"/>
	</g>
</g>
<g>
	<g>
		<path d="M46.05,28.572l-1.527,1.408l-2.578-2.869l0.717-0.631l-1.805-2.021l0.721-0.632l-1.832-2.019l2.859-2.574l0.908,0.994
			l1.533-1.368l0.906,0.939l0.604-0.541c-0.135-0.078-0.27-0.15-0.407-0.215c-0.871-0.426-1.849-0.666-2.879-0.666
			c-3.617,0-6.568,2.95-6.568,6.568c0,3.617,2.951,6.567,6.568,6.567c1.175,0,2.282-0.311,3.237-0.856
			c0.315-0.178,0.602-0.371,0.864-0.574L46.05,28.572z"/>
	</g>
</g>
<g>
	<g>
		<path d="M12.016,23.717c-0.405,0-0.787,0.157-1.013,0.277v-2.136l-0.779,0.187v5.231c0.45,0.239,1.064,0.367,1.462,0.367
			c1.087,0,1.761-0.683,1.761-2.085C13.447,24.361,12.945,23.717,12.016,23.717z M11.686,27.118c-0.188,0-0.449-0.014-0.689-0.119
			v-2.451c0.3-0.165,0.518-0.247,0.816-0.247c0.502,0,0.848,0.308,0.848,1.258C12.661,26.773,12.241,27.118,11.686,27.118z"/>
	</g>
</g>
<g>
	<g>
		<path d="M26.293,23.715c-0.862,0-1.574,0.352-1.911,0.554v3.282h0.778v-2.967c0.232-0.135,0.615-0.27,0.914-0.27
			c0.385,0,0.676,0.105,0.676,0.697v2.541h0.779V24.84C27.529,24.069,27.191,23.717,26.293,23.715z"/>
	</g>
</g>
<g>
	<g>
		<polygon points="18.499,22.239 16.897,26.428 16.859,26.428 15.18,22.239 14.274,22.239 14.274,27.553 14.948,27.553 
			14.948,23.79 15.015,23.79 16.544,27.553 17.023,27.553 18.552,23.699 18.619,23.699 18.619,27.553 19.428,27.553 19.428,22.239 
					"/>
	</g>
</g>
<g>
	<g>
		<path d="M21.961,23.717c-0.989,0-1.709,0.652-1.709,1.963c0,1.281,0.683,1.964,1.709,1.964c1.027,0,1.709-0.683,1.709-1.964
			C23.67,24.368,22.95,23.717,21.961,23.717z M21.961,27.118c-0.532,0-0.922-0.41-0.922-1.438c0-1.012,0.428-1.439,0.922-1.439
			c0.51,0,0.922,0.427,0.922,1.439C22.883,26.707,22.493,27.118,21.961,27.118z"/>
	</g>
</g>
<g>
</g>
<g>
</g>
<g>
</g>
<g>
</g>
<g>
</g>
<g>
</g>
<g>
</g>
<g>
</g>
<g>
</g>
<g>
</g>
<g>
</g>
<g>
</g>
<g>
</g>
<g>
</g>
<g>
</g>
</svg>
